<?xml version="1.0" standalone="no"?>
<!DOCTYPE svg PUBLIC "-//W3C//DTD SVG 20010904//EN"
 "http://www.w3.org/TR/2001/REC-SVG-20010904/DTD/svg10.dtd">
<svg version="1.0" xmlns="http://www.w3.org/2000/svg"
 width="300.000000pt" height="395.000000pt" viewBox="0 0 300.000000 395.000000"
 preserveAspectRatio="xMidYMid meet">
<metadata>
Created by potrace 1.10, written by Peter Selinger 2001-2011
</metadata>
<g transform="translate(0.000000,395.000000) scale(0.100000,-0.100000)"
fill="#000000" stroke="none">
<path d="M1077 3870 c-22 -26 -22 -33 1 -19 10 7 19 18 19 25 0 17 1 18 -20
-6z"/>
<path d="M1079 3830 c-29 -23 -5 -28 27 -5 12 8 24 12 26 9 3 -2 16 0 29 5 21
9 19 10 -17 10 -28 1 -50 -6 -65 -19z"/>
<path d="M1238 3843 c7 -3 16 -2 19 1 4 3 -2 6 -13 5 -11 0 -14 -3 -6 -6z"/>
<path d="M1293 3829 c-18 -5 -33 -12 -33 -15 0 -8 63 6 75 17 11 11 1 10 -42
-2z"/>
<path d="M1393 3828 c-2 -5 -14 -8 -26 -8 -27 -1 -62 -26 -48 -34 5 -3 11 -1
13 5 2 7 13 13 24 14 24 2 104 25 104 29 0 7 -62 1 -67 -6z"/>
<path d="M1470 3825 c0 -8 9 -10 25 -7 14 2 25 6 25 7 0 1 -11 5 -25 7 -16 3
-25 1 -25 -7z"/>
<path d="M999 3810 c-27 -22 -22 -25 15 -10 14 5 26 14 26 20 0 16 -15 12 -41
-10z"/>
<path d="M1535 3821 c6 -5 29 -14 53 -19 35 -8 42 -7 42 5 0 11 -7 14 -24 9
-14 -3 -37 -1 -53 5 -17 6 -24 6 -18 0z"/>
<path d="M919 3778 c-20 -18 -28 -28 -20 -22 9 7 26 15 38 18 11 4 24 13 27
21 9 24 -8 17 -45 -17z"/>
<path d="M867 3786 c-7 -17 -86 -56 -102 -50 -20 8 -52 -12 -58 -36 -3 -11 -1
-18 4 -14 5 3 9 1 9 -5 0 -5 -8 -12 -19 -16 -24 -7 -82 -71 -73 -80 4 -3 -1
-11 -11 -16 -9 -6 -17 -15 -17 -21 0 -7 5 -6 14 1 12 10 14 9 11 -6 -11 -55
-14 -113 -5 -113 6 0 10 11 10 25 0 14 5 25 11 25 8 0 10 -15 6 -46 -7 -63 8
-42 22 30 6 33 15 62 20 65 4 3 12 17 16 30 4 13 23 41 42 62 20 21 31 39 25
39 -5 0 -24 -17 -42 -37 -17 -21 -29 -30 -26 -20 10 33 -4 17 -29 -33 -14 -27
-25 -57 -25 -67 0 -12 -3 -14 -11 -6 -22 22 67 178 95 167 7 -3 21 6 32 18
l19 23 -21 -17 c-26 -22 -35 -23 -27 -1 4 11 3 14 -5 9 -18 -11 -14 10 5 25
11 10 17 11 20 3 7 -22 98 19 132 60 11 14 11 16 -2 16 -8 0 -17 -6 -20 -14z"/>
<path d="M1026 3784 c-17 -12 -17 -14 -4 -14 9 0 20 5 23 11 11 17 2 18 -19 3z"/>
<path d="M1103 3792 c-7 -5 -6 -11 2 -19 10 -10 16 -9 24 1 9 10 8 15 -2 19
-8 3 -19 2 -24 -1z"/>
<path d="M1155 3781 c3 -6 -3 -14 -12 -20 -11 -6 -13 -11 -5 -11 7 0 10 -5 7
-10 -4 -6 -21 -10 -39 -8 -28 2 -32 5 -29 22 4 18 3 19 -6 5 -6 -9 -22 -20
-36 -23 -36 -9 -33 -29 5 -28 3 0 15 3 28 7 34 10 27 -11 -8 -24 -35 -12 -40
-24 -8 -19 12 2 33 13 47 26 14 13 27 18 31 12 3 -5 13 -1 24 12 13 15 15 23
6 28 -19 12 6 23 52 23 61 0 54 14 -8 16 -32 0 -53 -3 -49 -8z"/>
<path d="M1265 3760 c-10 -12 -13 -20 -7 -20 7 0 12 5 12 10 0 6 7 10 16 10 8
0 12 -4 9 -10 -3 -5 -2 -10 4 -10 19 0 21 19 3 29 -15 8 -23 6 -37 -9z"/>
<path d="M1364 3765 c33 -17 46 -19 46 -5 0 5 -7 7 -15 4 -8 -4 -15 -1 -15 5
0 6 -10 11 -22 11 -21 0 -21 -1 6 -15z"/>
<path d="M1576 3773 c-4 -5 -11 -8 -14 -9 -4 0 -14 -3 -22 -7 -8 -3 -22 -8
-30 -11 -8 -2 0 -4 18 -3 19 1 35 4 37 7 2 4 27 4 55 0 27 -4 50 -3 50 2 0 8
-21 12 -52 9 -10 -1 -18 3 -18 8 0 13 -13 14 -24 4z"/>
<path d="M970 3763 c-8 -3 -19 -12 -23 -19 -4 -8 -17 -14 -27 -14 -11 0 -20
-4 -20 -10 0 -5 -5 -10 -11 -10 -5 0 -25 -10 -43 -22 -26 -18 -31 -27 -25 -43
6 -15 8 -16 8 -4 1 10 27 29 64 48 34 17 70 42 80 56 10 14 17 25 15 24 -2 0
-10 -3 -18 -6z"/>
<path d="M1443 3757 c-8 -14 0 -14 42 -1 l40 13 -38 -2 c-21 0 -41 -5 -44 -10z"/>
<path d="M1208 3753 c6 -2 9 -10 6 -15 -4 -7 -2 -8 5 -4 13 9 5 26 -12 25 -9
0 -8 -2 1 -6z"/>
<path d="M985 3740 c-3 -5 -1 -10 4 -10 6 0 11 5 11 10 0 6 -2 10 -4 10 -3 0
-8 -4 -11 -10z"/>
<path d="M841 3731 c-7 -5 -12 -13 -10 -18 2 -6 13 -2 23 8 20 19 12 26 -13
10z"/>
<path d="M1469 3735 c-3 -2 -52 -5 -109 -5 -87 -2 -114 -6 -155 -25 -28 -13
-57 -23 -65 -23 -34 2 -49 -3 -44 -15 2 -7 -7 -28 -21 -47 -14 -19 -25 -39
-25 -44 0 -6 7 0 16 12 8 12 21 22 27 20 7 -1 28 6 47 15 19 9 25 14 13 11
-37 -9 -26 11 15 29 21 9 42 17 47 17 5 0 16 7 26 16 22 20 232 33 243 15 4
-6 17 -11 29 -10 15 0 17 2 7 6 -8 3 -22 12 -31 19 -9 8 -18 12 -20 9z m-357
-117 c-7 -7 -12 -8 -12 -2 0 14 12 26 19 19 2 -3 -1 -11 -7 -17z"/>
<path d="M1938 3733 c6 -2 10 -9 7 -14 -4 -5 1 -6 10 -2 13 5 14 7 3 14 -7 5
-17 8 -23 8 -5 0 -4 -3 3 -6z"/>
<path d="M665 3710 c-10 -11 -26 -22 -35 -25 -17 -5 -36 -48 -31 -69 1 -4 -4
-15 -10 -23 -20 -23 -47 -111 -37 -121 4 -4 3 -23 -3 -40 -7 -21 -8 -41 -2
-59 9 -27 10 -27 17 17 4 24 11 47 16 50 5 3 11 26 14 50 l6 45 -14 -40 -14
-40 -1 36 c-1 20 10 56 23 82 14 25 22 48 18 52 -4 3 13 24 36 45 23 22 42 44
42 50 0 14 -4 13 -25 -10z"/>
<path d="M1885 3710 c-3 -5 3 -10 15 -10 12 0 18 5 15 10 -3 6 -10 10 -15 10
-5 0 -12 -4 -15 -10z"/>
<path d="M970 3699 c0 -5 -4 -7 -10 -4 -5 3 -10 1 -10 -4 0 -15 11 -13 34 4
17 13 18 15 3 15 -9 0 -17 -5 -17 -11z"/>
<path d="M1365 3700 c-3 -5 -1 -10 4 -10 6 0 11 5 11 10 0 6 -2 10 -4 10 -3 0
-8 -4 -11 -10z"/>
<path d="M793 3685 c-15 -16 -16 -25 -5 -25 4 0 13 9 20 20 14 23 3 26 -15 5z"/>
<path d="M1590 3690 c0 -5 5 -10 11 -10 5 0 7 5 4 10 -3 6 -8 10 -11 10 -2 0
-4 -4 -4 -10z"/>
<path d="M906 3675 c-11 -8 -15 -15 -10 -15 6 0 19 7 30 15 10 8 15 14 9 14
-5 0 -19 -6 -29 -14z"/>
<path d="M1955 3680 c3 -5 10 -10 16 -10 5 0 9 5 9 10 0 6 -7 10 -16 10 -8 0
-12 -4 -9 -10z"/>
<path d="M965 3668 c-21 -5 -42 -13 -45 -19 -4 -5 -17 -11 -28 -12 -12 -1 -22
-8 -22 -15 0 -12 3 -12 15 -2 33 27 23 1 -12 -34 -23 -22 -32 -36 -22 -36 8 0
32 22 53 49 26 35 42 48 53 44 13 -5 9 -13 -20 -40 -35 -31 -53 -59 -23 -34
11 9 15 9 19 -1 4 -9 6 -9 6 2 2 19 66 91 75 83 3 -3 6 -1 6 5 0 17 -12 19
-55 10z"/>
<path d="M1649 3667 c5 -5 21 -7 37 -5 27 3 26 4 -8 9 -22 3 -34 1 -29 -4z"/>
<path d="M1800 3670 c-8 -5 -10 -10 -5 -10 6 0 17 5 25 10 8 5 11 10 5 10 -5
0 -17 -5 -25 -10z"/>
<path d="M1860 3670 c0 -5 5 -10 11 -10 5 0 7 5 4 10 -3 6 -8 10 -11 10 -2 0
-4 -4 -4 -10z"/>
<path d="M1213 3660 c-35 -14 -27 -20 10 -8 17 6 34 13 36 14 8 7 -24 3 -46
-6z"/>
<path d="M1333 3656 c-26 -12 -29 -21 -11 -32 6 -4 8 -3 5 3 -4 6 13 13 43 17
52 7 79 26 36 26 -14 0 -28 -4 -31 -10 -3 -5 -11 -10 -16 -10 -6 0 -7 5 -4 10
3 6 5 9 3 9 -2 -1 -13 -6 -25 -13z"/>
<path d="M1755 3660 c3 -5 8 -10 11 -10 2 0 4 5 4 10 0 6 -5 10 -11 10 -5 0
-7 -4 -4 -10z"/>
<path d="M557 3647 c-10 -26 -9 -67 2 -67 13 0 18 31 11 60 -5 22 -7 23 -13 7z"/>
<path d="M1057 3653 c-4 -3 -7 -11 -7 -17 0 -6 5 -5 12 2 6 6 9 14 7 17 -3 3
-9 2 -12 -2z"/>
<path d="M1936 3641 c12 -12 21 -14 26 -8 10 16 0 27 -24 27 -21 0 -21 0 -2
-19z"/>
<path d="M751 3605 c-17 -24 -33 -58 -34 -75 -1 -16 -4 -30 -7 -30 -3 0 -4
-18 -2 -40 2 -22 8 -40 13 -40 5 0 8 3 8 8 -5 27 3 72 12 72 5 0 7 -4 4 -10
-3 -5 -1 -10 4 -10 19 0 12 22 -8 27 -13 3 -17 11 -14 24 7 24 23 25 23 2 0
-9 14 5 31 31 35 57 32 74 -4 21 -14 -20 -28 -32 -31 -26 -7 10 11 36 48 72
16 15 17 19 5 19 -9 0 -30 -20 -48 -45z"/>
<path d="M1470 3640 c-8 -5 -12 -12 -9 -15 4 -3 12 1 19 10 14 17 11 19 -10 5z"/>
<path d="M1405 3618 c-38 -30 -85 -78 -85 -88 0 -4 15 6 33 24 18 17 47 39 65
48 17 9 32 22 32 28 0 16 -13 12 -45 -12z"/>
<path d="M1488 3615 c-16 -13 -28 -27 -28 -32 0 -4 -12 -17 -27 -29 -16 -12
-26 -25 -22 -28 9 -9 103 74 106 95 4 24 4 24 -29 -6z"/>
<path d="M2137 3628 c2 -5 13 -8 23 -8 10 0 21 3 23 8 3 4 -8 7 -23 7 -15 0
-26 -3 -23 -7z"/>
<path d="M835 3620 c-3 -5 -3 -10 1 -10 3 0 -1 -11 -10 -25 -9 -14 -12 -25 -7
-25 5 0 13 10 17 23 14 42 14 61 -1 37z"/>
<path d="M989 3613 c-13 -16 -12 -17 4 -4 9 7 17 15 17 17 0 8 -8 3 -21 -13z"/>
<path d="M1190 3623 c-8 -2 -30 -25 -49 -51 -33 -45 -26 -44 29 6 34 31 52 30
37 -3 -7 -14 -16 -25 -20 -25 -5 0 -5 5 -1 12 4 7 3 8 -4 4 -6 -4 -9 -13 -5
-22 4 -11 9 -12 19 -3 8 6 14 17 14 24 0 7 20 20 45 29 25 10 45 22 45 27 0
13 -13 11 -36 -6 -25 -19 -44 -19 -44 0 0 15 -3 16 -30 8z"/>
<path d="M1620 3620 c-12 -8 -12 -10 5 -9 11 0 29 4 40 9 18 8 18 9 -5 9 -14
0 -32 -4 -40 -9z"/>
<path d="M2090 3625 c0 -2 10 -10 23 -16 20 -11 21 -11 8 4 -13 16 -31 23 -31
12z"/>
<path d="M1343 3613 c-7 -2 -13 -12 -13 -21 0 -15 -2 -15 -11 -2 -9 13 -10 13
-6 -1 3 -9 0 -22 -6 -28 -28 -28 4 -7 37 24 34 31 33 42 -1 28z"/>
<path d="M1125 3596 c-11 -7 -24 -14 -30 -14 -5 0 -11 -6 -13 -12 -5 -13 53
14 63 30 8 14 3 13 -20 -4z"/>
<path d="M1550 3590 c0 -13 11 -13 30 0 12 8 11 10 -7 10 -13 0 -23 -4 -23
-10z"/>
<path d="M1633 3593 c-13 -2 -23 -8 -23 -13 0 -10 38 -1 46 11 3 5 4 8 2 8 -2
-1 -13 -4 -25 -6z"/>
<path d="M1253 3573 c-17 -9 -36 -27 -42 -41 -11 -24 -10 -23 24 7 20 17 40
29 45 26 4 -3 10 2 14 10 7 18 0 18 -41 -2z"/>
<path d="M1391 3550 c-23 -22 -40 -46 -38 -52 4 -10 6 -10 6 0 1 6 10 12 22
12 12 0 17 4 13 11 -3 6 6 22 22 34 16 13 26 26 23 29 -3 3 -24 -12 -48 -34z"/>
<path d="M1685 3580 c-3 -5 -2 -10 4 -10 5 0 13 5 16 10 3 6 2 10 -4 10 -5 0
-13 -4 -16 -10z"/>
<path d="M954 3559 c-19 -22 -19 -22 4 -10 12 6 22 16 22 21 0 15 -5 12 -26
-11z"/>
<path d="M1655 3571 c-3 -6 -14 -11 -24 -11 -21 0 -71 -37 -71 -52 0 -6 15 1
34 16 19 14 41 26 50 26 16 0 31 18 23 26 -3 3 -8 1 -12 -5z"/>
<path d="M1772 3561 c2 -8 -8 -20 -22 -28 -15 -8 -19 -13 -9 -13 8 0 24 6 35
14 16 12 17 17 6 28 -11 11 -13 11 -10 -1z"/>
<path d="M2189 3553 c6 -12 24 -31 41 -43 16 -12 30 -27 30 -34 0 -7 9 -21 20
-31 23 -21 25 -17 7 16 -16 31 -49 69 -60 69 -5 0 -18 10 -28 23 -20 22 -20
22 -10 0z"/>
<path d="M1480 3550 c0 -5 5 -10 10 -10 6 0 10 5 10 10 0 6 -4 10 -10 10 -5 0
-10 -4 -10 -10z"/>
<path d="M1533 3547 c-13 -5 -23 -14 -23 -19 0 -13 18 -10 23 5 3 6 3 -4 1
-23 l-5 -35 16 34 c19 43 16 51 -12 38z"/>
<path d="M1667 3540 c-14 -11 -31 -20 -37 -20 -15 0 -90 -59 -90 -70 0 -5 33
11 74 36 40 24 82 44 92 45 11 0 14 3 6 6 -6 2 -10 9 -6 14 9 16 -12 10 -39
-11z"/>
<path d="M1818 3553 c7 -3 16 -2 19 1 4 3 -2 6 -13 5 -11 0 -14 -3 -6 -6z"/>
<path d="M2078 3553 c7 -3 16 -2 19 1 4 3 -2 6 -13 5 -11 0 -14 -3 -6 -6z"/>
<path d="M2245 3550 c11 -5 27 -9 35 -9 13 -1 13 0 0 9 -8 5 -24 9 -35 9 -20
0 -20 0 0 -9z"/>
<path d="M869 3533 c-13 -16 -12 -17 4 -4 9 7 17 15 17 17 0 8 -8 3 -21 -13z"/>
<path d="M877 3515 c-17 -15 -23 -25 -14 -25 8 0 22 11 31 25 20 31 18 31 -17
0z"/>
<path d="M1445 3520 c-10 -11 -13 -20 -8 -20 13 0 38 29 31 35 -3 3 -13 -4
-23 -15z"/>
<path d="M1759 3493 c-16 -18 -34 -33 -39 -33 -14 0 -12 6 6 24 14 15 14 16
-1 16 -8 0 -20 -11 -25 -24 -5 -13 -28 -33 -54 -46 -26 -12 -51 -30 -56 -40
-7 -14 19 -4 92 33 60 31 103 59 106 70 2 10 10 16 18 13 7 -3 18 1 24 9 8 10
5 13 -15 11 -16 0 -38 -14 -56 -33z"/>
<path d="M991 3504 c0 -11 3 -14 6 -6 3 7 2 16 -1 19 -3 4 -6 -2 -5 -13z"/>
<path d="M1652 3485 c-24 -19 -51 -37 -60 -40 -10 -3 -25 -17 -35 -31 -18 -24
-16 -23 35 8 55 33 130 98 113 98 -6 0 -30 -16 -53 -35z"/>
<path d="M506 3501 c-3 -5 0 -11 7 -14 8 -3 14 1 14 9 0 16 -13 19 -21 5z"/>
<path d="M1376 3469 c-22 -22 -37 -41 -35 -44 6 -6 79 64 79 76 0 11 2 13 -44
-32z"/>
<path d="M1284 3485 c-4 -11 -15 -25 -23 -32 -9 -7 -11 -13 -5 -13 17 0 47 37
41 52 -3 9 -7 7 -13 -7z"/>
<path d="M1443 3483 c-15 -5 -17 -23 -4 -23 5 0 11 7 15 15 3 8 4 15 3 14 -1
0 -8 -3 -14 -6z"/>
<path d="M479 3463 c-13 -16 -12 -17 4 -4 9 7 17 15 17 17 0 8 -8 3 -21 -13z"/>
<path d="M883 3465 c-3 -9 -3 -18 -1 -21 3 -3 8 4 11 16 6 23 -1 27 -10 5z"/>
<path d="M2326 3469 c6 -11 31 -12 37 -1 3 4 -6 8 -19 8 -13 1 -21 -2 -18 -7z"/>
<path d="M493 3430 c-13 -21 -23 -47 -23 -57 0 -11 -5 -24 -12 -31 -8 -8 -9
-12 -1 -12 6 0 13 -6 16 -12 2 -7 3 -5 2 5 -2 9 1 17 6 17 13 0 11 -34 -3 -48
-9 -9 -9 -12 -1 -12 7 0 14 -12 17 -27 2 -16 3 8 1 53 -2 44 0 85 4 90 9 9 26
74 19 74 -2 0 -13 -18 -25 -40z"/>
<path d="M533 3455 c-3 -9 -3 -18 -1 -21 3 -3 8 4 11 16 6 23 -1 27 -10 5z"/>
<path d="M781 3460 c-1 -23 15 -45 23 -31 4 6 3 11 -3 11 -5 0 -12 8 -14 18
-3 12 -5 13 -6 2z"/>
<path d="M1210 3460 c-9 -6 -10 -10 -3 -10 6 0 15 5 18 10 8 12 4 12 -15 0z"/>
<path d="M1455 3444 c-13 -21 -14 -29 -4 -38 9 -8 10 -8 6 0 -4 7 3 23 14 38
11 14 16 26 11 26 -5 0 -17 -12 -27 -26z"/>
<path d="M1816 3462 c-2 -4 11 -6 30 -4 19 2 34 6 34 8 0 8 -59 4 -64 -4z"/>
<path d="M752 3440 c0 -14 2 -19 5 -12 2 6 2 18 0 25 -3 6 -5 1 -5 -13z"/>
<path d="M1375 3430 c-10 -11 -14 -20 -8 -20 5 0 18 9 28 20 10 11 14 20 8 20
-5 0 -18 -9 -28 -20z"/>
<path d="M1760 3439 c0 -5 5 -7 10 -4 6 3 10 8 10 11 0 2 -4 4 -10 4 -5 0 -10
-5 -10 -11z"/>
<path d="M1918 3443 c7 -3 16 -2 19 1 4 3 -2 6 -13 5 -11 0 -14 -3 -6 -6z"/>
<path d="M2310 3441 c0 -6 5 -13 10 -16 6 -3 10 1 10 9 0 9 -4 16 -10 16 -5 0
-10 -4 -10 -9z"/>
<path d="M1834 3425 c-10 -8 -14 -15 -8 -15 6 0 17 7 24 15 16 19 9 19 -16 0z"/>
<path d="M580 3410 c0 -11 4 -20 9 -20 5 0 7 9 4 20 -3 11 -7 20 -9 20 -2 0
-4 -9 -4 -20z"/>
<path d="M672 3400 c0 -19 2 -27 5 -17 2 9 2 25 0 35 -3 9 -5 1 -5 -18z"/>
<path d="M1710 3420 c-13 -8 -13 -10 2 -10 9 0 20 5 23 10 8 13 -5 13 -25 0z"/>
<path d="M1795 3420 c-3 -5 -1 -10 4 -10 6 0 11 5 11 10 0 6 -2 10 -4 10 -3 0
-8 -4 -11 -10z"/>
<path d="M2340 3415 c-8 -9 -8 -15 -2 -15 12 0 26 19 19 26 -2 2 -10 -2 -17
-11z"/>
<path d="M1223 3395 c-3 -9 -3 -18 -1 -21 3 -3 8 4 11 16 6 23 -1 27 -10 5z"/>
<path d="M1732 3403 c-10 -4 -10 -8 -1 -19 10 -12 14 -12 24 3 8 10 17 15 21
11 4 -5 -1 -17 -11 -28 -10 -11 -13 -20 -7 -20 15 0 35 38 27 50 -7 11 -31 12
-53 3z"/>
<path d="M712 3375 c0 -16 2 -22 5 -12 2 9 2 23 0 30 -3 6 -5 -1 -5 -18z"/>
<path d="M741 3348 c-1 -28 0 -50 2 -47 10 10 18 99 9 99 -5 0 -10 -23 -11
-52z"/>
<path d="M782 3380 c0 -14 2 -19 5 -12 2 6 2 18 0 25 -3 6 -5 1 -5 -13z"/>
<path d="M437 3384 c-4 -4 -7 -17 -7 -28 1 -19 1 -20 11 -3 11 19 8 43 -4 31z"/>
<path d="M1386 3349 c-41 -41 -28 -44 14 -3 19 19 31 34 25 33 -5 0 -23 -14
-39 -30z"/>
<path d="M383 3340 c-19 -17 -39 -49 -48 -77 -17 -54 -26 -135 -13 -127 4 3 8
17 8 32 0 42 19 101 41 125 11 12 27 30 36 39 28 31 9 37 -24 8z"/>
<path d="M1700 3360 c0 -5 5 -10 10 -10 6 0 10 5 10 10 0 6 -4 10 -10 10 -5 0
-10 -4 -10 -10z"/>
<path d="M1650 3345 c-14 -8 -20 -14 -14 -15 5 0 19 7 30 15 24 18 16 19 -16
0z"/>
<path d="M2000 3350 c-9 -6 -10 -10 -3 -10 6 0 15 5 18 10 8 12 4 12 -15 0z"/>
<path d="M2190 3350 c0 -5 5 -10 11 -10 5 0 7 5 4 10 -3 6 -8 10 -11 10 -2 0
-4 -4 -4 -10z"/>
<path d="M537 3332 c1 -8 3 -37 4 -65 1 -52 1 -52 14 -22 9 20 10 32 3 36 -6
4 -9 18 -6 33 3 14 2 23 -3 21 -4 -3 -9 -2 -12 2 -2 5 -2 2 0 -5z"/>
<path d="M1726 3341 c-3 -5 -15 -7 -26 -4 -14 4 -20 0 -20 -11 0 -14 -49 -47
-78 -52 -8 -1 -17 -5 -20 -9 -11 -11 45 3 81 20 32 15 89 65 74 65 -3 0 -8 -4
-11 -9z"/>
<path d="M663 3300 c0 -25 2 -35 4 -22 2 12 2 32 0 45 -2 12 -4 2 -4 -23z"/>
<path d="M1760 3326 c-6 -9 -10 -21 -8 -28 3 -8 9 -4 17 10 15 28 9 39 -9 18z"/>
<path d="M2140 3330 c0 -5 -6 -10 -14 -10 -7 0 -19 -7 -26 -15 -23 -27 -6 -24
34 6 25 18 33 29 23 29 -9 0 -17 -4 -17 -10z"/>
<path d="M680 3315 c0 -8 2 -15 4 -15 2 0 6 7 10 15 3 8 1 15 -4 15 -6 0 -10
-7 -10 -15z"/>
<path d="M2064 3305 c-10 -8 -14 -15 -8 -15 6 0 17 7 24 15 16 19 9 19 -16 0z"/>
<path d="M2163 3303 c-7 -2 -13 -12 -13 -20 0 -10 -6 -14 -19 -10 -14 3 -18 1
-14 -9 6 -16 19 -18 28 -4 4 6 10 8 14 5 5 -2 17 2 27 11 18 14 18 15 -6 8
-22 -6 -23 -5 -11 10 14 17 14 18 -6 9z"/>
<path d="M1707 3293 c-9 -2 -15 -9 -12 -14 4 -5 0 -9 -7 -9 -7 0 -22 -8 -33
-16 -19 -16 -19 -16 5 -9 42 12 15 -5 -47 -31 -39 -16 -50 -24 -34 -24 31 0
134 52 120 61 -6 4 0 15 17 28 26 21 25 23 -9 14z"/>
<path d="M2498 3285 c6 -11 21 -29 34 -40 22 -19 22 -19 -2 10 -40 48 -43 51
-32 30z"/>
<path d="M1895 3280 c-3 -6 1 -7 9 -4 18 7 21 14 7 14 -6 0 -13 -4 -16 -10z"/>
<path d="M1990 3279 c0 -5 5 -7 10 -4 6 3 10 8 10 11 0 2 -4 4 -10 4 -5 0 -10
-5 -10 -11z"/>
<path d="M440 3265 c0 -8 4 -15 10 -15 5 0 7 7 4 15 -4 8 -8 15 -10 15 -2 0
-4 -7 -4 -15z"/>
<path d="M2037 3259 c-9 -6 -15 -14 -12 -20 4 -5 -2 -9 -12 -10 -10 0 -13 -3
-6 -5 7 -3 20 -1 30 5 13 8 14 10 4 11 -11 0 -9 4 5 15 22 17 17 19 -9 4z"/>
<path d="M2197 3251 c-3 -14 -12 -19 -31 -17 -15 2 -37 -5 -49 -15 -12 -10
-18 -18 -13 -19 5 0 2 -8 -5 -17 -12 -16 -12 -17 2 -6 9 7 19 10 23 6 4 -4 4
0 1 8 -3 9 0 16 7 17 47 3 74 16 88 43 8 15 7 19 -3 19 -8 0 -17 -9 -20 -19z"/>
<path d="M1520 3243 c-25 -9 -40 -18 -34 -20 11 -4 84 24 84 32 0 3 -1 5 -2 4
-2 0 -23 -8 -48 -16z"/>
<path d="M435 3230 c-3 -5 -1 -10 4 -10 6 0 11 5 11 10 0 6 -2 10 -4 10 -3 0
-8 -4 -11 -10z"/>
<path d="M1786 3224 c-23 -23 -20 -30 4 -9 11 10 20 20 20 22 0 7 -9 2 -24
-13z"/>
<path d="M1805 3198 l-40 -43 43 40 c39 36 47 45 39 45 -2 0 -21 -19 -42 -42z"/>
<path d="M2227 3234 c-8 -8 3 -34 15 -34 7 0 6 5 -1 13 -6 8 -8 17 -4 20 3 4
4 7 1 7 -2 0 -7 -3 -11 -6z"/>
<path d="M1450 3220 c-13 -8 -12 -10 3 -10 9 0 17 5 17 10 0 12 -1 12 -20 0z"/>
<path d="M2046 3215 c-11 -8 -16 -15 -10 -15 5 0 18 7 28 15 11 8 16 15 10 15
-5 0 -18 -7 -28 -15z"/>
<path d="M2190 3195 c-7 -8 -18 -15 -25 -15 -7 0 -18 -7 -25 -15 -7 -8 -10
-15 -7 -15 13 0 77 43 77 51 0 13 -6 11 -20 -6z"/>
<path d="M1930 3180 c8 -5 20 -10 25 -10 6 0 3 5 -5 10 -8 5 -19 10 -25 10 -5
0 -3 -5 5 -10z"/>
<path d="M1160 3170 c0 -6 7 -10 15 -10 8 0 15 2 15 4 0 2 -7 6 -15 10 -8 3
-15 1 -15 -4z"/>
<path d="M2055 3170 c-3 -6 1 -7 9 -4 18 7 21 14 7 14 -6 0 -13 -4 -16 -10z"/>
<path d="M940 3154 c0 -7 7 -27 15 -45 8 -19 14 -29 15 -23 0 7 -7 27 -15 45
-8 19 -14 29 -15 23z"/>
<path d="M2102 3148 c-7 -7 -34 -21 -60 -31 l-47 -17 39 6 c42 6 73 22 80 41
7 16 3 16 -12 1z"/>
<path d="M541 3134 c0 -11 3 -14 6 -6 3 7 2 16 -1 19 -3 4 -6 -2 -5 -13z"/>
<path d="M1895 3140 c4 -6 16 -8 27 -4 15 4 18 3 13 -6 -5 -9 -4 -11 3 -6 22
13 12 26 -19 26 -18 0 -28 -4 -24 -10z"/>
<path d="M652 3115 c0 -16 2 -22 5 -12 2 9 2 23 0 30 -3 6 -5 -1 -5 -18z"/>
<path d="M845 3129 c-4 -6 -5 -12 -2 -15 2 -3 7 2 10 11 7 17 1 20 -8 4z"/>
<path d="M891 3124 c0 -11 3 -14 6 -6 3 7 2 16 -1 19 -3 4 -6 -2 -5 -13z"/>
<path d="M1685 3115 c-25 -11 -27 -14 -9 -14 12 -1 27 6 34 14 15 18 14 18
-25 0z"/>
<path d="M2115 3119 c-4 -6 -5 -12 -2 -15 2 -3 7 2 10 11 7 17 1 20 -8 4z"/>
<path d="M492 3100 c0 -14 2 -19 5 -12 2 6 2 18 0 25 -3 6 -5 1 -5 -13z"/>
<path d="M1155 3110 c-3 -5 -2 -10 4 -10 5 0 13 5 16 10 3 6 2 10 -4 10 -5 0
-13 -4 -16 -10z"/>
<path d="M1040 3083 c0 -10 6 -13 16 -9 9 3 20 6 25 6 21 0 7 15 -16 16 -16 1
-25 -3 -25 -13z"/>
<path d="M2058 3083 c7 -3 16 -2 19 1 4 3 -2 6 -13 5 -11 0 -14 -3 -6 -6z"/>
<path d="M647 3067 c-3 -8 -1 -20 4 -28 6 -10 9 -7 9 14 0 29 -5 35 -13 14z"/>
<path d="M1118 3073 c6 -2 18 -2 25 0 6 3 1 5 -13 5 -14 0 -19 -2 -12 -5z"/>
<path d="M1600 3070 c0 -6 7 -10 15 -10 8 0 15 2 15 4 0 2 -7 6 -15 10 -8 3
-15 1 -15 -4z"/>
<path d="M312 3050 c0 -14 2 -19 5 -12 2 6 2 18 0 25 -3 6 -5 1 -5 -13z"/>
<path d="M1305 3050 c27 -12 43 -12 25 0 -8 5 -22 9 -30 9 -10 0 -8 -3 5 -9z"/>
<path d="M1453 3053 c9 -2 23 -2 30 0 6 3 -1 5 -18 5 -16 0 -22 -2 -12 -5z"/>
<path d="M801 3024 c0 -11 3 -14 6 -6 3 7 2 16 -1 19 -3 4 -6 -2 -5 -13z"/>
<path d="M1690 3031 c0 -5 6 -14 14 -20 12 -10 13 -8 9 8 -5 21 -23 30 -23 12z"/>
<path d="M1420 3021 c64 -20 121 -30 137 -23 18 7 -26 16 -122 26 -30 4 -34 3
-15 -3z"/>
<path d="M1837 3019 c7 -7 15 -10 18 -7 3 3 -2 9 -12 12 -14 6 -15 5 -6 -5z"/>
<path d="M1750 3010 c0 -10 46 -33 60 -28 6 2 -5 11 -24 19 -20 9 -36 13 -36
9z"/>
<path d="M1083 3003 c9 -2 23 -2 30 0 6 3 -1 5 -18 5 -16 0 -22 -2 -12 -5z"/>
<path d="M1162 2990 c7 -11 21 -20 31 -20 10 0 15 5 12 10 -3 6 -13 10 -21 10
-8 0 -14 5 -14 10 0 6 -5 10 -10 10 -6 0 -5 -8 2 -20z"/>
<path d="M1346 2975 c-25 -19 -16 -19 20 0 16 8 22 15 14 15 -8 -1 -24 -7 -34
-15z"/>
<path d="M1220 2970 c0 -5 5 -10 11 -10 5 0 7 5 4 10 -3 6 -8 10 -11 10 -2 0
-4 -4 -4 -10z"/>
<path d="M1720 2976 c0 -2 8 -10 18 -17 15 -13 16 -12 3 4 -13 16 -21 21 -21
13z"/>
<path d="M1830 2972 c0 -12 19 -27 45 -35 20 -7 20 -7 0 8 -11 8 -26 19 -32
25 -7 6 -13 7 -13 2z"/>
<path d="M906 2961 c2 -2 -3 -13 -13 -23 -10 -11 -12 -18 -4 -18 6 0 14 7 17
15 4 8 9 13 14 10 4 -2 15 2 25 9 17 12 16 13 -12 12 -17 0 -29 -3 -27 -5z"/>
<path d="M983 2950 c-13 -10 -23 -22 -23 -26 0 -4 9 1 19 10 18 16 21 16 43 2
26 -17 50 -8 54 19 2 15 1 15 -17 -1 -17 -16 -21 -16 -36 -1 -16 14 -20 14
-40 -3z"/>
<path d="M1604 2962 c4 -3 14 -7 22 -8 9 -1 13 0 10 4 -4 3 -14 7 -22 8 -9 1
-13 0 -10 -4z"/>
<path d="M1788 2943 c7 -3 16 -2 19 1 4 3 -2 6 -13 5 -11 0 -14 -3 -6 -6z"/>
<path d="M840 2913 c0 -10 4 -14 8 -8 4 6 11 13 16 18 5 4 2 7 -7 7 -10 0 -17
-8 -17 -17z"/>
<path d="M1970 2915 c-7 -8 -9 -15 -6 -15 4 0 14 7 22 15 9 8 11 15 6 15 -5 0
-15 -7 -22 -15z"/>
<path d="M1011 2917 c2 -1 13 -9 24 -17 19 -14 19 -14 6 3 -7 9 -18 17 -24 17
-6 0 -8 -1 -6 -3z"/>
<path d="M1285 2910 c-3 -5 1 -10 10 -10 9 0 13 5 10 10 -3 6 -8 10 -10 10 -2
0 -7 -4 -10 -10z"/>
<path d="M1590 2910 c0 -5 7 -7 15 -4 8 4 15 8 15 10 0 2 -7 4 -15 4 -8 0 -15
-4 -15 -10z"/>
<path d="M1920 2910 c0 -5 7 -10 16 -10 8 0 12 5 9 10 -3 6 -10 10 -16 10 -5
0 -9 -4 -9 -10z"/>
<path d="M2580 2913 c0 -4 5 -15 10 -23 8 -13 10 -13 10 2 0 9 -4 20 -10 23
-5 3 -10 3 -10 -2z"/>
<path d="M676 2895 c-9 -26 -7 -32 5 -12 6 10 9 21 6 23 -2 3 -7 -2 -11 -11z"/>
<path d="M997 2899 c7 -7 15 -10 18 -7 3 3 -2 9 -12 12 -14 6 -15 5 -6 -5z"/>
<path d="M1125 2899 c-4 -5 6 -9 21 -9 23 0 25 -2 14 -15 -15 -19 -6 -32 12
-18 7 6 22 13 33 15 14 3 7 8 -27 20 -28 10 -50 13 -53 7z"/>
<path d="M1328 2888 c3 -14 2 -19 -6 -14 -7 4 -12 2 -12 -3 0 -13 5 -14 28 -2
9 5 37 13 62 18 44 9 44 9 13 14 -18 3 -30 2 -27 -3 3 -4 -6 -8 -20 -8 -14 0
-26 5 -26 10 0 6 -4 10 -9 10 -5 0 -7 -10 -3 -22z"/>
<path d="M1480 2891 c6 -12 17 -21 25 -21 21 0 19 5 -11 25 -25 16 -25 16 -14
-4z"/>
<path d="M332 2880 c14 -22 24 -19 15 5 -4 8 -11 15 -17 15 -6 0 -6 -7 2 -20z"/>
<path d="M790 2890 c0 -5 5 -10 11 -10 5 0 7 5 4 10 -3 6 -8 10 -11 10 -2 0
-4 -4 -4 -10z"/>
<path d="M928 2886 c-20 -14 -24 -36 -8 -36 6 0 10 6 10 14 0 8 12 19 28 24
21 8 22 11 7 11 -11 0 -28 -6 -37 -13z"/>
<path d="M1236 2887 c3 -10 9 -15 12 -12 3 3 0 11 -7 18 -10 9 -11 8 -5 -6z"/>
<path d="M611 2858 c-1 -28 -5 -36 -15 -32 -13 5 -13 2 -3 -20 l12 -25 8 30
c4 17 6 43 4 58 -3 20 -4 17 -6 -11z"/>
<path d="M1705 2883 c11 -3 26 -14 34 -25 7 -11 29 -26 47 -34 29 -12 38 -12
69 3 19 9 35 20 35 24 0 4 -12 1 -27 -7 -42 -21 -69 -17 -103 16 -17 17 -41
29 -53 29 -20 -1 -20 -2 -2 -6z"/>
<path d="M1900 2879 c0 -5 5 -7 10 -4 6 3 10 8 10 11 0 2 -4 4 -10 4 -5 0 -10
-5 -10 -11z"/>
<path d="M840 2865 c-19 -23 -8 -26 19 -4 16 13 18 19 8 19 -8 0 -20 -7 -27
-15z"/>
<path d="M980 2872 c0 -5 7 -9 15 -9 8 0 12 4 9 9 -3 4 -9 8 -15 8 -5 0 -9 -4
-9 -8z"/>
<path d="M1270 2865 c-11 -13 -10 -14 4 -9 9 3 16 10 16 15 0 13 -6 11 -20 -6z"/>
<path d="M1600 2873 c0 -22 35 -39 65 -32 l30 7 -29 1 c-16 0 -38 8 -48 18
-10 9 -18 12 -18 6z"/>
<path d="M1060 2860 c0 -5 5 -10 10 -10 18 0 10 -19 -11 -25 -11 -4 -18 -9
-15 -12 8 -8 77 18 71 27 -3 5 3 11 12 13 14 4 13 5 -4 6 -13 1 -23 -6 -26
-16 -4 -14 -5 -12 -6 5 -1 21 -31 33 -31 12z"/>
<path d="M1460 2866 c0 -9 61 -38 67 -32 3 3 -7 10 -22 16 -15 6 -32 13 -36
16 -5 3 -9 3 -9 0z"/>
<path d="M1566 2855 c4 -8 10 -12 15 -9 14 8 10 24 -6 24 -9 0 -12 -6 -9 -15z"/>
<path d="M765 2850 c-3 -5 -1 -10 4 -10 6 0 11 5 11 10 0 6 -2 10 -4 10 -3 0
-8 -4 -11 -10z"/>
<path d="M961 2844 c0 -11 3 -14 6 -6 3 7 2 16 -1 19 -3 4 -6 -2 -5 -13z"/>
<path d="M1946 2852 c-2 -4 4 -8 14 -8 10 0 16 4 14 8 -3 4 -9 8 -14 8 -5 0
-11 -4 -14 -8z"/>
<path d="M665 2840 c-5 -8 -15 -25 -23 -38 -13 -20 -13 -22 1 -16 9 3 15 11
14 17 -1 6 4 11 11 12 13 0 16 8 10 27 -3 8 -7 8 -13 -2z"/>
<path d="M1000 2840 c0 -5 5 -10 10 -10 6 0 10 5 10 10 0 6 -4 10 -10 10 -5 0
-10 -4 -10 -10z"/>
<path d="M1297 2839 c7 -7 15 -10 18 -7 3 3 -2 9 -12 12 -14 6 -15 5 -6 -5z"/>
<path d="M1327 2824 c-3 -18 -1 -22 6 -15 13 13 18 41 7 41 -4 0 -10 -12 -13
-26z"/>
<path d="M933 2834 c3 -5 -5 -23 -18 -40 -21 -24 -24 -26 -22 -9 1 11 -2 20
-8 20 -5 0 -9 -6 -7 -13 4 -17 -28 -28 -38 -12 -6 9 -12 10 -26 1 -18 -10 -18
-10 1 -12 86 -8 104 -7 109 7 3 9 9 13 14 10 11 -7 9 40 -2 51 -5 4 -7 3 -3
-3z"/>
<path d="M1164 2812 c-1 -15 1 -21 3 -14 3 6 17 13 31 13 21 1 23 2 7 6 -11 3
-24 9 -30 13 -6 5 -10 -2 -11 -18z"/>
<path d="M456 2815 c4 -8 8 -15 10 -15 2 0 4 7 4 15 0 8 -4 15 -10 15 -5 0 -7
-7 -4 -15z"/>
<path d="M538 2785 c-6 -49 -4 -64 8 -53 3 3 4 28 2 54 l-3 49 -7 -50z"/>
<path d="M2571 2814 c0 -11 3 -14 6 -6 3 7 2 16 -1 19 -3 4 -6 -2 -5 -13z"/>
<path d="M282 2790 c0 -19 2 -27 5 -17 2 9 2 25 0 35 -3 9 -5 1 -5 -18z"/>
<path d="M392 2786 c1 -19 6 -32 10 -30 12 7 10 52 -2 59 -7 4 -10 -6 -8 -29z"/>
<path d="M710 2800 c0 -11 4 -20 9 -20 5 0 7 9 4 20 -3 11 -7 20 -9 20 -2 0
-4 -9 -4 -20z"/>
<path d="M967 2801 c-2 -10 -1 -25 4 -32 7 -11 9 -11 9 3 0 9 3 23 6 32 3 9 2
16 -4 16 -5 0 -12 -9 -15 -19z"/>
<path d="M1240 2805 c0 -8 4 -15 10 -15 5 0 7 7 4 15 -4 8 -8 15 -10 15 -2 0
-4 -7 -4 -15z"/>
<path d="M996 2794 c-5 -14 -4 -15 8 -5 10 8 16 9 21 1 7 -12 42 -13 49 -1 3
4 -6 6 -19 3 -15 -2 -25 0 -25 7 0 17 -27 13 -34 -5z"/>
<path d="M1128 2803 c7 -3 16 -2 19 1 4 3 -2 6 -13 5 -11 0 -14 -3 -6 -6z"/>
<path d="M436 2792 c-3 -6 -1 -14 5 -17 15 -10 25 3 12 16 -7 7 -13 7 -17 1z"/>
<path d="M480 2789 c0 -5 5 -7 10 -4 6 3 10 8 10 11 0 2 -4 4 -10 4 -5 0 -10
-5 -10 -11z"/>
<path d="M560 2784 c0 -8 5 -12 10 -9 6 4 8 11 5 16 -9 14 -15 11 -15 -7z"/>
<path d="M760 2780 c-19 -15 -21 -20 -9 -20 16 0 46 27 38 35 -2 2 -15 -5 -29
-15z"/>
<path d="M1373 2785 c0 -11 4 -12 14 -4 7 6 13 13 13 15 0 2 -6 4 -13 4 -8 0
-14 -7 -14 -15z"/>
<path d="M1440 2790 c0 -6 7 -13 16 -17 9 -3 13 -12 9 -22 -5 -13 -4 -14 7 -3
11 11 10 16 -4 26 -10 7 -15 16 -11 19 3 4 1 7 -5 7 -7 0 -12 -5 -12 -10z"/>
<path d="M1500 2791 c0 -5 9 -7 20 -4 11 3 20 7 20 9 0 2 -9 4 -20 4 -11 0
-20 -4 -20 -9z"/>
<path d="M1725 2790 c-3 -5 -2 -10 4 -10 5 0 13 5 16 10 3 6 2 10 -4 10 -5 0
-13 -4 -16 -10z"/>
<path d="M1545 2781 c-3 -5 -2 -12 3 -15 5 -3 9 1 9 9 0 17 -3 19 -12 6z"/>
<path d="M500 2769 c0 -15 -36 -59 -44 -54 -3 3 -4 2 -1 -2 3 -3 0 -12 -6 -20
-9 -11 -7 -13 10 -10 12 2 27 9 34 17 9 10 9 11 0 6 -18 -10 -16 9 1 23 17 14
28 51 15 51 -5 0 -9 -5 -9 -11z"/>
<path d="M1156 2764 c-5 -14 -4 -15 9 -4 17 14 19 20 6 20 -5 0 -12 -7 -15
-16z"/>
<path d="M1670 2776 c0 -2 8 -10 18 -17 15 -13 16 -12 3 4 -13 16 -21 21 -21
13z"/>
<path d="M575 2759 c-4 -6 -4 -13 -1 -16 3 -4 6 -1 6 6 0 7 5 9 10 6 6 -3 10
-1 10 4 0 14 -17 14 -25 0z"/>
<path d="M1218 2764 c6 -3 10 -9 7 -14 -3 -4 4 -6 15 -3 25 7 18 16 -13 19
-12 2 -16 0 -9 -2z"/>
<path d="M2556 2742 c4 -18 -1 -52 -11 -82 -9 -28 -15 -53 -13 -56 8 -7 46
111 44 137 0 12 -7 24 -13 26 -9 3 -11 -4 -7 -25z"/>
<path d="M436 2743 c-6 -14 -5 -15 5 -6 7 7 10 15 7 18 -3 3 -9 -2 -12 -12z"/>
<path d="M1340 2746 c0 -8 7 -17 16 -20 23 -9 24 -4 2 17 -14 13 -18 14 -18 3z"/>
<path d="M820 2739 c0 -5 5 -7 10 -4 6 3 10 8 10 11 0 2 -4 4 -10 4 -5 0 -10
-5 -10 -11z"/>
<path d="M1174 2730 c0 -13 4 -16 10 -10 7 7 7 13 0 20 -6 6 -10 3 -10 -10z"/>
<path d="M1560 2739 c0 -5 5 -7 10 -4 6 3 10 8 10 11 0 2 -4 4 -10 4 -5 0 -10
-5 -10 -11z"/>
<path d="M1750 2741 c0 -5 6 -14 14 -20 12 -10 13 -8 9 8 -5 21 -23 30 -23 12z"/>
<path d="M292 2712 c-2 -28 0 -27 16 4 8 16 8 21 -1 21 -7 0 -14 -12 -15 -25z"/>
<path d="M600 2731 c0 -5 -8 -7 -17 -5 -12 3 -22 -4 -30 -21 -6 -14 -7 -25 -3
-25 5 0 5 -13 0 -29 -4 -16 -5 -32 -2 -36 4 -3 -2 -3 -11 1 -15 5 -17 2 -13
-20 3 -14 0 -26 -5 -26 -6 0 -7 -4 -4 -10 3 -5 2 -10 -4 -10 -6 0 -8 -7 -4
-16 3 -9 0 -20 -8 -25 -12 -7 -12 -9 1 -9 8 0 20 4 26 8 17 11 44 80 38 97 -3
8 1 24 10 37 9 12 16 27 16 33 0 5 -5 3 -10 -5 -9 -13 -10 -13 -10 0 0 9 9 23
20 33 18 15 27 37 15 37 -3 0 -5 -4 -5 -9z m-10 -15 c0 -3 -4 -8 -10 -11 -5
-3 -10 -1 -10 4 0 6 5 11 10 11 6 0 10 -2 10 -4z"/>
<path d="M1948 2728 c5 -5 16 -8 23 -6 8 3 3 7 -10 11 -17 4 -21 3 -13 -5z"/>
<path d="M1410 2720 c-8 -5 -11 -12 -8 -16 4 -3 14 1 23 10 18 17 9 21 -15 6z"/>
<path d="M1485 2720 c3 -5 11 -10 16 -10 6 0 7 5 4 10 -3 6 -11 10 -16 10 -6
0 -7 -4 -4 -10z"/>
<path d="M506 2696 c-23 -36 -20 -44 5 -12 12 15 19 29 16 32 -2 2 -12 -7 -21
-20z"/>
<path d="M1556 2705 c4 -8 11 -15 16 -15 6 0 5 6 -2 15 -7 8 -14 15 -16 15 -2
0 -1 -7 2 -15z"/>
<path d="M1436 2701 c-3 -5 1 -11 9 -14 9 -4 12 -1 8 9 -6 16 -10 17 -17 5z"/>
<path d="M1354 2679 c-19 -22 -19 -22 4 -8 12 8 22 17 22 21 0 12 -6 9 -26
-13z"/>
<path d="M1230 2680 c-9 -6 -10 -10 -3 -10 6 0 15 5 18 10 8 12 4 12 -15 0z"/>
<path d="M1610 2680 c-13 -8 -13 -10 2 -10 9 0 20 5 23 10 8 13 -5 13 -25 0z"/>
<path d="M2030 2677 c0 -16 68 -83 76 -75 3 4 -4 11 -15 18 -12 6 -21 15 -21
20 0 6 -9 19 -20 30 -13 13 -20 15 -20 7z"/>
<path d="M295 2670 c-3 -5 -1 -10 4 -10 6 0 11 5 11 10 0 6 -2 10 -4 10 -3 0
-8 -4 -11 -10z"/>
<path d="M1300 2670 c0 -5 4 -10 9 -10 6 0 13 5 16 10 3 6 -1 10 -9 10 -9 0
-16 -4 -16 -10z"/>
<path d="M1486 2669 c4 -7 44 0 44 7 0 2 -11 3 -24 2 -14 -1 -23 -5 -20 -9z"/>
<path d="M434 2645 c-24 -37 -10 -42 16 -6 12 17 17 31 11 31 -6 0 -18 -11
-27 -25z"/>
<path d="M805 2660 c-3 -5 -1 -10 4 -10 6 0 11 5 11 10 0 6 -2 10 -4 10 -3 0
-8 -4 -11 -10z"/>
<path d="M1155 2660 c-3 -6 1 -7 9 -4 18 7 21 14 7 14 -6 0 -13 -4 -16 -10z"/>
<path d="M0 2649 c0 -5 5 -7 10 -4 5 3 10 8 10 11 0 2 -4 4 -10 4 -5 0 -10 -5
-10 -11z"/>
<path d="M40 2653 c0 -4 29 -9 65 -9 36 -1 65 1 65 5 0 5 -29 9 -65 10 -36 1
-65 -2 -65 -6z"/>
<path d="M1060 2641 c0 -5 9 -7 20 -4 11 3 20 7 20 9 0 2 -9 4 -20 4 -11 0
-20 -4 -20 -9z"/>
<path d="M198 2620 c24 -23 29 -67 11 -103 -10 -21 -10 -21 5 -3 28 35 12 126
-22 126 -12 0 -10 -5 6 -20z"/>
<path d="M313 2603 c-18 -39 -16 -64 2 -29 9 17 14 36 13 43 -2 7 -9 1 -15
-14z"/>
<path d="M480 2619 c0 -5 5 -7 10 -4 6 3 10 8 10 11 0 2 -4 4 -10 4 -5 0 -10
-5 -10 -11z"/>
<path d="M2161 2614 c0 -11 3 -14 6 -6 3 7 2 16 -1 19 -3 4 -6 -2 -5 -13z"/>
<path d="M1260 2610 c20 -13 33 -13 25 0 -3 6 -14 10 -23 10 -15 0 -15 -2 -2
-10z"/>
<path d="M759 2572 c9 -7 10 -11 2 -15 -7 -4 -8 -5 0 -3 15 2 13 20 -3 24 -10
3 -10 2 1 -6z"/>
<path d="M870 2569 c0 -5 -4 -8 -9 -5 -5 4 -21 2 -35 -4 -19 -7 -26 -6 -26 2
0 7 -5 5 -12 -4 -7 -9 -20 -18 -28 -21 -12 -4 -12 -6 2 -6 9 -1 28 3 41 8 18
7 40 5 77 -7 42 -13 53 -14 59 -3 5 7 10 9 12 3 2 -5 23 -13 47 -17 38 -6 42
-5 42 15 0 12 4 18 10 15 6 -4 7 1 3 11 -6 15 -7 15 -20 -2 -11 -16 -17 -17
-34 -6 -11 7 -24 10 -30 6 -6 -3 -28 -8 -50 -10 -29 -3 -39 0 -37 8 3 7 17 14
32 15 45 3 43 13 -2 13 -23 0 -42 -5 -42 -11z"/>
<path d="M430 2560 c-8 -5 -11 -12 -8 -16 4 -3 14 1 23 10 18 17 9 21 -15 6z"/>
<path d="M724 2554 c5 -13 3 -14 -6 -6 -9 7 -18 6 -32 -4 -18 -12 -16 -13 17
-12 28 1 35 5 34 20 -1 10 -5 18 -10 18 -5 0 -6 -7 -3 -16z"/>
<path d="M1087 2540 c5 -30 -10 -43 -20 -17 -3 7 -6 5 -6 -5 -1 -12 6 -18 19
-18 27 0 36 3 32 14 -5 14 19 36 32 29 7 -4 7 -1 -1 7 -10 11 -15 11 -28 0
-12 -10 -15 -10 -15 4 0 9 -4 16 -10 16 -5 0 -7 -13 -3 -30z"/>
<path d="M1720 2554 c-16 -8 -19 -14 -9 -14 8 0 24 7 35 15 24 18 7 18 -26 -1z"/>
<path d="M2501 2529 c-7 -24 -17 -52 -22 -61 -14 -28 -11 -42 6 -28 8 7 15 26
15 42 0 16 5 38 11 49 6 11 9 25 7 31 -2 6 -10 -9 -17 -33z"/>
<path d="M1966 2536 c3 -9 11 -16 16 -16 13 0 5 23 -10 28 -7 2 -10 -2 -6 -12z"/>
<path d="M60 2505 c0 -8 4 -15 8 -15 12 0 32 -47 32 -75 0 -14 4 -25 9 -25 4
0 20 -10 34 -22 14 -13 36 -30 47 -38 15 -11 23 -29 27 -60 4 -39 1 -48 -21
-69 -23 -22 -35 -51 -20 -51 21 0 54 63 56 108 1 40 -27 102 -47 102 -6 0 -23
12 -37 28 -29 30 -47 82 -29 82 21 0 11 20 -19 35 -36 19 -40 19 -40 0z"/>
<path d="M594 2509 c-73 -12 -147 -62 -181 -124 -15 -27 -29 -54 -29 -60 -1
-5 -2 -16 -3 -23 0 -7 -5 -11 -9 -8 -15 9 -5 -198 13 -269 32 -126 83 -174
228 -212 89 -24 285 -23 352 1 64 24 111 56 95 66 -9 5 -9 9 -1 14 6 4 11 2
11 -5 0 -7 8 -5 20 6 38 35 20 -1 -21 -40 -50 -49 -71 -86 -58 -106 7 -11 9
-9 9 8 0 12 22 45 48 75 27 29 56 73 64 98 30 86 109 265 125 282 9 10 30 26
47 36 26 16 37 17 69 8 54 -16 73 -37 92 -103 9 -32 33 -103 52 -158 19 -55
38 -116 40 -135 3 -19 16 -48 29 -63 48 -57 27 -125 -48 -163 -50 -25 -72 -43
-63 -53 3 -2 10 1 17 7 7 5 39 23 70 40 32 16 54 32 51 36 -4 3 -1 17 7 30 17
32 6 88 -25 125 -34 40 -31 48 6 16 87 -73 187 -100 369 -100 163 0 220 16
273 74 36 40 88 173 87 227 0 16 3 80 6 142 4 70 3 112 -4 112 -5 0 -7 -10 -5
-23 4 -21 -11 -211 -20 -247 -14 -56 -41 -131 -60 -165 -44 -78 -102 -98 -284
-97 -160 2 -265 35 -336 108 -48 50 -48 36 1 -18 33 -37 34 -40 8 -23 -15 10
-38 35 -50 54 -43 68 -116 297 -131 409 -6 42 -13 57 -38 76 -22 17 -35 22
-43 15 -9 -7 -14 -4 -19 10 -7 23 -32 35 -41 19 -4 -7 -3 -8 4 -4 19 12 14
-16 -5 -30 -24 -18 -31 -17 -36 4 -4 13 -5 12 -6 -5 0 -12 -6 -25 -12 -29 -6
-3 -9 -15 -6 -25 3 -11 1 -17 -3 -14 -5 3 -10 -1 -13 -7 -2 -7 -5 6 -5 30 -1
61 -58 126 -128 146 -124 37 -381 55 -510 35z m346 -26 c8 -3 23 -5 33 -4 10
1 41 -6 70 -15 29 -10 54 -19 57 -19 53 -10 108 -57 116 -100 13 -71 -61 -298
-131 -401 -43 -63 -77 -88 -154 -114 -68 -23 -136 -25 -247 -9 -167 25 -230
71 -260 189 -20 81 -26 270 -8 270 7 0 20 24 30 53 9 28 19 59 22 67 5 13 3
13 -11 2 -9 -8 -21 -30 -27 -50 -19 -63 -20 -65 -25 -61 -8 9 17 94 33 112 41
46 151 81 277 89 58 4 207 -2 225 -9z m448 -134 c24 -8 34 -20 46 -55 15 -45
12 -56 -8 -29 -18 25 -87 45 -111 32 -41 -21 -79 -74 -107 -146 -39 -100 -95
-212 -119 -236 -11 -11 -5 6 15 38 35 60 104 216 109 249 2 9 6 21 10 24 4 4
7 16 7 26 0 11 4 17 10 13 5 -3 19 13 30 35 28 55 61 69 118 49z"/>
<path d="M717 2467 c-8 -20 6 -37 22 -27 8 4 27 4 43 -2 16 -6 32 -8 35 -4 4
3 0 6 -8 6 -11 0 -11 2 1 10 11 7 1 10 -35 11 -37 0 -45 3 -30 9 19 8 19 9 -1
9 -12 1 -24 -5 -27 -12z"/>
<path d="M840 2470 c0 -5 7 -10 16 -10 8 0 12 5 9 10 -3 6 -10 10 -16 10 -5 0
-9 -4 -9 -10z"/>
<path d="M903 2463 c-13 -2 -23 -9 -23 -15 0 -6 8 -7 18 -3 32 12 37 10 38
-18 1 -15 4 -31 8 -35 4 -4 6 11 4 32 -3 41 -9 46 -45 39z"/>
<path d="M546 2445 c-17 -13 -34 -40 -49 -77 -6 -16 -4 -16 27 0 19 9 30 19
25 22 -4 3 -2 19 7 34 17 35 15 39 -10 21z"/>
<path d="M960 2445 c0 -8 5 -15 11 -15 5 0 8 4 4 9 -3 5 5 12 17 14 20 4 19 4
-4 6 -19 1 -28 -4 -28 -14z"/>
<path d="M583 2434 c-10 -7 -13 -14 -6 -14 6 0 15 5 18 11 4 6 13 8 19 6 7 -3
19 -2 25 3 9 5 4 8 -13 8 -14 0 -34 -7 -43 -14z"/>
<path d="M830 2446 c0 -2 9 -6 20 -9 11 -3 18 -1 14 4 -5 9 -34 13 -34 5z"/>
<path d="M964 2388 l-19 -23 23 19 c21 18 27 26 19 26 -2 0 -12 -10 -23 -22z"/>
<path d="M1130 2385 c-7 -8 -19 -15 -26 -15 -8 0 -14 -8 -14 -17 1 -22 23 -53
39 -53 6 0 11 -4 11 -10 0 -5 8 -2 18 8 13 11 16 22 11 33 -5 9 -5 20 -1 24 4
5 1 5 -5 1 -8 -4 -13 -2 -13 5 0 9 -3 9 -14 -1 -18 -14 -10 -41 10 -33 8 3 14
0 14 -6 0 -19 -34 -12 -48 9 -11 18 -9 24 15 45 16 13 25 25 22 25 -4 0 -12
-7 -19 -15z"/>
<path d="M556 2323 c-6 -15 -8 -15 -17 -3 -8 12 -9 11 -7 -5 2 -11 -5 -27 -16
-36 -15 -12 -17 -20 -9 -34 10 -16 12 -15 26 11 26 47 38 76 34 81 -3 2 -8 -4
-11 -14z"/>
<path d="M775 2315 c-109 -25 -115 -27 -130 -48 -9 -13 -15 -16 -15 -8 0 8 -2
12 -5 9 -3 -3 -3 -13 1 -22 6 -16 8 -16 28 2 38 35 205 75 261 62 24 -5 35 -4
39 5 6 17 -102 17 -179 0z"/>
<path d="M967 2306 c-4 -10 -1 -13 8 -10 7 3 23 0 35 -6 12 -6 25 -9 28 -5 3
3 -4 8 -16 12 -12 3 -22 9 -22 14 0 15 -27 10 -33 -5z"/>
<path d="M866 2275 c-8 -9 -19 -16 -23 -17 -4 0 -18 -4 -31 -9 -37 -14 -50 -9
-17 6 27 13 28 14 7 15 -13 0 -44 -9 -70 -19 -76 -31 -86 -34 -103 -36 -35 -4
-69 -16 -69 -24 0 -5 39 -8 88 -8 48 0 114 0 147 -2 33 -1 105 -2 160 -3 55 0
124 -1 153 -1 28 -1 52 1 52 4 0 11 -37 39 -51 39 -8 0 -20 5 -25 10 -6 6 -25
14 -42 19 -25 8 -32 7 -32 -5 0 -12 26 -19 53 -15 4 0 7 -3 7 -9 0 -5 6 -10
14 -10 8 0 17 -3 19 -7 3 -5 -28 -9 -69 -9 -41 -1 -74 -1 -74 0 0 0 4 15 9 33
l9 31 -49 7 c-27 4 -46 11 -43 16 8 14 -3 11 -20 -6z m30 -52 c-11 -11 -17 4
-9 23 7 18 8 18 11 1 2 -10 1 -21 -2 -24z m36 3 c4 -17 1 -23 -9 -19 -15 6
-15 6 -7 27 8 22 11 20 16 -8z m-172 3 c0 -6 8 -8 19 -4 14 4 23 -1 32 -16 11
-21 10 -22 -20 -16 -45 9 -82 47 -46 47 8 0 15 -5 15 -11z m101 -8 c-11 -7
-11 -10 0 -14 9 -3 10 -6 2 -6 -18 -1 -27 20 -12 30 7 4 16 6 18 3 3 -3 -1 -9
-8 -13z m-151 -5 c0 -2 -7 -6 -15 -10 -8 -3 -15 -1 -15 4 0 6 7 10 15 10 8 0
15 -2 15 -4z"/>
<path d="M987 2255 c-4 -8 -2 -17 3 -20 6 -4 10 3 10 14 0 25 -6 27 -13 6z"/>
<path d="M572 2239 c2 -6 8 -10 13 -10 5 0 11 4 13 10 2 6 -4 11 -13 11 -9 0
-15 -5 -13 -11z"/>
<path d="M1127 2125 c-22 -19 -39 -25 -78 -25 -36 0 -49 -4 -49 -14 0 -19 23
-33 28 -18 2 7 15 12 28 12 31 0 73 21 98 49 26 29 7 26 -27 -4z"/>
<path d="M830 2130 c0 -5 7 -7 15 -4 8 4 15 8 15 10 0 2 -7 4 -15 4 -8 0 -15
-4 -15 -10z"/>
<path d="M931 2102 c-25 -3 -31 -6 -20 -13 10 -6 8 -9 -11 -9 -19 0 -22 -2
-11 -9 10 -6 23 -5 35 2 23 12 28 14 51 16 8 0 15 5 15 9 0 9 -3 9 -59 4z"/>
<path d="M735 2081 c6 -11 -7 -15 -33 -12 -6 1 -20 -3 -30 -9 -13 -9 -7 -10
28 -5 74 11 138 12 152 4 10 -6 10 -15 1 -39 -6 -16 -8 -28 -3 -25 15 9 28 62
19 76 -5 8 -9 10 -9 5 0 -5 -6 -4 -12 1 -18 14 -122 17 -113 4z"/>
<path d="M627 2039 c6 -22 20 -26 20 -4 0 8 -6 16 -13 19 -7 3 -10 -2 -7 -15z"/>
<path d="M923 2053 c-13 -2 -23 -9 -23 -14 0 -10 32 -4 60 12 13 7 13 8 0 7
-8 0 -25 -3 -37 -5z"/>
<path d="M800 2039 c0 -5 5 -7 10 -4 6 3 10 8 10 11 0 2 -4 4 -10 4 -5 0 -10
-5 -10 -11z"/>
<path d="M469 2013 c12 -17 21 -41 21 -53 0 -11 5 -18 10 -15 17 10 11 28 -21
65 -30 34 -30 34 -10 3z"/>
<path d="M760 2015 c0 -14 2 -25 4 -25 2 0 6 11 8 25 3 14 1 25 -3 25 -5 0 -9
-11 -9 -25z"/>
<path d="M1097 2011 c-4 -17 -3 -21 5 -13 5 5 8 16 6 23 -3 8 -7 3 -11 -10z"/>
<path d="M1055 2000 c3 -5 8 -10 11 -10 2 0 4 5 4 10 0 6 -5 10 -11 10 -5 0
-7 -4 -4 -10z"/>
<path d="M1008 1995 c-6 -7 -66 -18 -218 -41 -106 -16 -193 -45 -174 -57 6 -3
22 0 37 8 39 20 46 -2 11 -31 -31 -25 -22 -33 11 -10 28 19 158 54 267 72 56
9 99 21 108 31 13 14 13 15 -2 10 -12 -4 -18 -1 -18 8 0 15 -12 20 -22 10z
m12 -25 c0 -5 -2 -10 -4 -10 -3 0 -8 5 -11 10 -3 6 -1 10 4 10 6 0 11 -4 11
-10z m-85 -10 c-3 -5 -14 -10 -23 -9 -14 0 -13 2 3 9 27 11 27 11 20 0z m-183
-42 c-12 -12 -52 -22 -52 -13 0 6 39 23 55 24 5 1 4 -4 -3 -11z"/>
<path d="M516 1944 c-26 -26 -18 -39 9 -14 14 13 25 25 25 27 0 9 -20 1 -34
-13z"/>
<path d="M563 1940 c1 -11 4 -20 8 -20 10 0 19 27 12 34 -12 12 -22 5 -20 -14z"/>
<path d="M905 1860 c-3 -5 -1 -10 4 -10 6 0 11 5 11 10 0 6 -2 10 -4 10 -3 0
-8 -4 -11 -10z"/>
<path d="M1153 2513 c-15 -5 -17 -23 -4 -23 5 0 11 7 15 15 3 8 4 15 3 14 -1
0 -8 -3 -14 -6z"/>
<path d="M2040 2506 c0 -8 12 -17 26 -20 37 -10 38 -4 3 16 -23 13 -29 14 -29
4z"/>
<path d="M332 2490 c-7 -11 -9 -20 -4 -20 10 0 32 22 32 32 0 15 -15 8 -28
-12z"/>
<path d="M1173 2493 c-8 -21 4 -27 22 -10 19 20 19 24 -1 24 -9 0 -18 -7 -21
-14z"/>
<path d="M1661 2501 c-8 -5 -20 -7 -28 -4 -7 3 -20 0 -28 -7 -8 -7 -33 -13
-55 -13 -22 -1 -40 -5 -40 -9 0 -10 0 -10 97 2 147 19 185 19 179 3 -4 -10 -2
-12 11 -5 9 5 24 7 34 5 11 -3 30 2 43 11 15 9 32 13 43 9 16 -6 15 -8 -7 -14
-21 -6 -20 -7 13 -8 26 -1 37 3 37 13 0 19 -76 31 -111 17 -15 -5 -29 -8 -30
-7 -2 2 -30 6 -62 10 -46 5 -57 4 -51 -6 6 -10 4 -11 -7 0 -15 14 -19 15 -38
3z"/>
<path d="M2005 2500 c-3 -5 1 -10 10 -10 9 0 13 5 10 10 -3 6 -8 10 -10 10 -2
0 -7 -4 -10 -10z"/>
<path d="M400 2490 c0 -5 -9 -10 -19 -10 -11 0 -23 -5 -27 -11 -4 -8 1 -9 17
-4 29 9 60 35 41 35 -7 0 -12 -4 -12 -10z"/>
<path d="M2005 2465 c22 -8 49 -13 60 -13 11 0 2 6 -20 13 -22 8 -49 13 -60
13 -11 0 -2 -6 20 -13z"/>
<path d="M300 2450 c0 -5 7 -7 15 -4 8 4 15 8 15 10 0 2 -7 4 -15 4 -8 0 -15
-4 -15 -10z"/>
<path d="M1224 2445 c42 -16 126 -22 145 -11 8 5 14 0 18 -13 3 -11 9 -18 14
-15 5 3 6 10 3 16 -5 8 15 9 66 6 43 -3 100 0 139 8 36 7 82 15 101 18 19 2
-12 2 -70 0 -124 -6 -287 -6 -385 1 l-70 5 39 -15z"/>
<path d="M1807 2443 c18 -2 50 -2 70 0 21 2 7 4 -32 4 -38 0 -55 -2 -38 -4z"/>
<path d="M1635 2430 c-25 -11 1 -11 35 0 20 6 21 8 5 8 -11 0 -29 -3 -40 -8z"/>
<path d="M1948 2433 c12 -2 30 -2 40 0 9 3 -1 5 -23 4 -22 0 -30 -2 -17 -4z"/>
<path d="M2020 2431 c8 -6 22 -11 30 -11 37 0 196 -61 212 -81 17 -20 18 -20
18 -2 0 14 -12 25 -37 35 -92 38 -91 37 -55 31 51 -9 38 4 -22 21 -63 19 -77
20 -56 5 15 -11 -6 -9 -76 6 -22 5 -25 4 -14 -4z"/>
<path d="M278 2400 c-3 -19 -2 -40 3 -46 5 -6 11 -32 13 -59 3 -27 9 -52 14
-57 5 -5 5 14 0 44 -5 29 -13 76 -17 103 -7 50 -7 50 -13 15z"/>
<path d="M1720 2415 c-13 -16 0 -21 16 -6 5 5 18 11 29 14 16 4 14 5 -6 6 -15
0 -32 -6 -39 -14z"/>
<path d="M1797 2414 c3 -9 9 -12 12 -7 3 4 10 11 15 16 5 4 0 7 -12 7 -15 0
-20 -4 -15 -16z"/>
<path d="M310 2399 c0 -43 34 -228 41 -224 4 3 6 13 4 23 -24 119 -36 196 -31
207 3 8 1 15 -4 15 -6 0 -10 -10 -10 -21z"/>
<path d="M1545 2402 c-16 -11 -37 -27 -45 -37 -24 -29 -18 -144 14 -264 26
-98 55 -173 56 -143 0 7 -5 22 -10 32 -6 11 -12 32 -14 47 -2 15 -12 55 -21
88 -48 169 -38 226 51 282 10 6 15 12 9 12 -5 1 -23 -7 -40 -17z"/>
<path d="M1850 2410 c-24 -8 -24 -8 -2 -10 12 -1 37 -4 55 -6 17 -2 52 -4 77
-3 83 1 140 -11 140 -29 0 -13 2 -14 8 -4 7 10 15 10 36 2 15 -5 25 -14 21
-19 -3 -6 4 -15 15 -21 13 -7 19 -17 16 -26 -3 -8 -2 -13 3 -9 5 3 14 -7 19
-22 7 -17 11 -21 11 -11 1 10 -6 35 -15 57 -12 31 -25 43 -63 60 -66 28 -140
43 -178 36 -17 -3 -34 -1 -38 5 -7 12 -68 12 -105 0z"/>
<path d="M2445 2397 c-14 -22 -21 -24 -58 -20 -54 7 -39 -12 20 -25 42 -10 42
-10 54 25 14 43 6 53 -16 20z"/>
<path d="M2611 2411 c-7 -4 -36 -6 -64 -3 -95 8 -36 -14 68 -27 55 -6 134 -16
175 -21 171 -23 157 -24 157 10 0 28 -1 29 -14 10 -10 -14 -21 -18 -36 -15
-12 3 -48 7 -80 8 -32 2 -62 8 -65 13 -4 6 -23 11 -42 12 -42 2 -62 5 -75 14
-6 4 -17 3 -24 -1z"/>
<path d="M1440 2399 c0 -5 5 -7 10 -4 6 3 10 8 10 11 0 2 -4 4 -10 4 -5 0 -10
-5 -10 -11z"/>
<path d="M1765 2400 c-3 -6 1 -7 9 -4 18 7 21 14 7 14 -6 0 -13 -4 -16 -10z"/>
<path d="M2278 2393 c7 -3 16 -2 19 1 4 3 -2 6 -13 5 -11 0 -14 -3 -6 -6z"/>
<path d="M2315 2380 c3 -5 10 -10 16 -10 5 0 9 5 9 10 0 6 -7 10 -16 10 -8 0
-12 -4 -9 -10z"/>
<path d="M1680 2355 c-9 -10 -9 -15 -1 -15 6 0 11 -5 11 -11 0 -6 -7 -9 -14
-6 -10 4 -13 1 -10 -7 7 -17 54 -8 54 10 0 8 5 14 11 14 6 0 8 -9 4 -21 -6
-19 -4 -21 14 -16 11 3 21 1 21 -3 0 -16 -21 -22 -35 -10 -11 10 -15 10 -15 1
0 -7 -4 -10 -9 -6 -6 3 -15 -5 -22 -17 -11 -20 -10 -21 3 -11 27 23 174 15
258 -13 41 -14 82 -32 91 -40 18 -16 29 -18 29 -6 0 15 -93 59 -163 77 -55 15
-71 23 -78 43 -5 13 -6 29 -2 35 4 7 -1 6 -10 -2 -9 -7 -14 -18 -10 -24 3 -6
1 -7 -5 -3 -7 4 -12 2 -12 -4 0 -7 9 -14 20 -17 11 -3 20 -10 20 -15 0 -6 -7
-7 -16 -4 -9 3 -20 6 -25 6 -5 0 -9 7 -9 15 0 7 -7 18 -16 23 -11 6 -14 14 -9
23 7 10 10 9 15 -5 5 -16 7 -16 25 4 19 21 19 21 -5 18 -14 -2 -31 -7 -37 -11
-7 -4 -21 -3 -32 3 -25 13 -26 13 -41 -5z m34 -16 c-3 -5 -10 -7 -15 -3 -5 3
-7 10 -3 15 3 5 10 7 15 3 5 -3 7 -10 3 -15z"/>
<path d="M1836 2341 c-3 -5 1 -11 9 -15 8 -3 15 -1 15 4 0 13 -18 22 -24 11z"/>
<path d="M2152 2330 c0 -14 2 -19 5 -12 2 6 2 18 0 25 -3 6 -5 1 -5 -13z"/>
<path d="M2300 2330 c6 -11 13 -20 16 -20 2 0 0 9 -6 20 -6 11 -13 20 -16 20
-2 0 0 -9 6 -20z"/>
<path d="M2985 2340 c-3 -5 -1 -10 4 -10 6 0 11 5 11 10 0 6 -2 10 -4 10 -3 0
-8 -4 -11 -10z"/>
<path d="M2414 2318 c-4 -13 -10 -30 -12 -38 -6 -24 -10 -164 -5 -177 9 -23
23 -3 17 23 -3 13 -1 52 5 87 7 34 13 69 14 77 2 8 6 20 10 26 7 12 0 24 -14
24 -4 0 -11 -10 -15 -22z"/>
<path d="M2170 2316 c0 -2 8 -10 18 -17 15 -13 16 -12 3 4 -13 16 -21 21 -21
13z"/>
<path d="M1698 2225 c-81 -17 -118 -34 -118 -56 0 -23 67 -37 207 -44 l103 -4
17 27 c9 15 18 28 19 30 1 2 16 -4 33 -13 18 -9 35 -13 40 -11 11 7 35 -20 28
-31 -3 -5 2 -9 11 -9 9 -1 26 -4 37 -8 11 -5 15 -4 9 1 -6 4 -13 15 -16 23 -6
16 -167 84 -197 83 -9 0 -20 3 -26 7 -5 5 -26 7 -45 5 -19 -1 -37 1 -40 4 -3
4 -31 2 -62 -4z m64 -50 c2 -19 0 -35 -5 -35 -24 0 -103 25 -109 34 -5 8 -8 7
-8 -1 0 -7 -12 -13 -26 -13 -42 0 -19 16 43 29 32 7 63 15 68 16 26 8 33 2 37
-30z m74 -2 c-11 -11 -19 6 -11 24 8 17 8 17 12 0 3 -10 2 -21 -1 -24z m-26
-3 c0 -11 -7 -20 -15 -20 -18 0 -19 12 -3 28 16 16 18 15 18 -8z m83 -10 c-4
-14 -14 -20 -35 -20 -17 0 -27 4 -23 10 4 6 11 8 16 5 5 -3 6 1 3 9 -3 9 2 16
13 18 26 6 32 1 26 -22z"/>
<path d="M278 2169 c-31 -17 -20 -28 17 -16 19 6 35 14 35 19 0 11 -31 10 -52
-3z"/>
<path d="M2630 2170 c20 -13 33 -13 25 0 -3 6 -14 10 -23 10 -15 0 -15 -2 -2
-10z"/>
<path d="M2715 2160 c3 -5 8 -10 11 -10 2 0 4 5 4 10 0 6 -5 10 -11 10 -5 0
-7 -4 -4 -10z"/>
<path d="M2796 2145 c4 -8 8 -15 10 -15 2 0 4 7 4 15 0 8 -4 15 -10 15 -5 0
-7 -7 -4 -15z"/>
<path d="M2845 2140 c7 -12 55 -14 55 -2 0 4 -14 9 -31 10 -19 2 -28 -2 -24
-8z"/>
<path d="M2931 2141 c-7 -5 -9 -11 -4 -14 5 -3 15 -2 22 2 7 5 9 11 4 14 -5 3
-15 2 -22 -2z"/>
<path d="M1933 2130 c-13 -5 -23 -11 -23 -12 0 -2 23 -4 51 -4 47 -1 49 0 27
12 -27 15 -26 15 -55 4z"/>
<path d="M208 2109 c-15 -20 -15 -22 3 -40 10 -10 19 -30 19 -44 0 -14 4 -25
9 -25 17 0 19 24 5 57 -7 18 -11 42 -9 53 5 26 -6 25 -27 -1z"/>
<path d="M1554 2105 c29 -47 59 -76 72 -71 7 3 15 0 18 -7 2 -7 5 -4 5 6 1 9
-4 17 -9 17 -6 0 -32 19 -57 43 -42 38 -45 39 -29 12z"/>
<path d="M1744 2095 c27 -10 43 -12 50 -5 7 7 5 10 -6 10 -8 0 -31 2 -49 5
-34 5 -34 5 5 -10z"/>
<path d="M2118 2089 c13 -11 30 -19 40 -17 12 3 8 8 -17 21 -45 22 -50 21 -23
-4z"/>
<path d="M300 2087 c1 -7 9 -29 19 -51 16 -33 19 -35 24 -17 3 12 0 32 -6 46
-13 27 -37 42 -37 22z"/>
<path d="M0 2068 c0 -5 7 -11 15 -14 8 -4 15 -15 15 -26 0 -10 -4 -17 -9 -14
-11 7 -21 -18 -20 -47 0 -15 2 -17 6 -7 3 8 14 25 25 36 11 12 20 28 22 35 1
8 5 20 9 27 9 13 6 14 -35 16 -16 1 -28 -2 -28 -6z"/>
<path d="M1706 2066 c3 -9 18 -16 32 -16 29 0 20 14 -15 25 -18 5 -22 3 -17
-9z"/>
<path d="M1818 2073 c7 -3 16 -2 19 1 4 3 -2 6 -13 5 -11 0 -14 -3 -6 -6z"/>
<path d="M1878 2063 c7 -3 16 -2 19 1 4 3 -2 6 -13 5 -11 0 -14 -3 -6 -6z"/>
<path d="M1678 2053 c7 -3 16 -2 19 1 4 3 -2 6 -13 5 -11 0 -14 -3 -6 -6z"/>
<path d="M1779 2003 c2 -32 6 -51 11 -43 4 7 16 9 29 5 28 -9 27 3 -2 14 -14
6 -23 18 -25 35 -1 16 2 25 8 21 6 -3 10 -4 10 -1 0 3 -8 10 -17 15 -16 8 -18
4 -14 -46z"/>
<path d="M1835 2030 c3 -5 8 -10 11 -10 2 0 4 5 4 10 0 6 -5 10 -11 10 -5 0
-7 -4 -4 -10z"/>
<path d="M356 1997 c-6 -12 -3 -24 10 -38 27 -30 32 -133 8 -176 -16 -30 -16
-38 -4 -71 7 -20 20 -42 28 -48 12 -9 16 -42 18 -160 4 -224 11 -252 117 -476
12 -26 28 -47 35 -48 18 0 15 11 -12 50 -36 54 -94 207 -105 280 -10 68 -20
230 -21 338 0 38 -4 62 -11 62 -7 0 -9 -10 -5 -27 6 -27 6 -27 -9 -9 -8 11
-15 25 -15 32 0 7 -4 14 -9 16 -5 2 -3 17 4 33 l13 30 1 -27 c1 -15 5 -30 11
-33 6 -4 8 26 4 87 -6 92 -19 148 -35 148 -4 0 -9 12 -11 28 -4 23 -5 24 -12
9z"/>
<path d="M1693 1994 c7 -6 24 -16 40 -22 22 -9 27 -9 27 3 0 18 -17 28 -51 29
-21 1 -25 -2 -16 -10z"/>
<path d="M1805 2000 c-3 -5 -1 -10 4 -10 6 0 11 5 11 10 0 6 -2 10 -4 10 -3 0
-8 -4 -11 -10z"/>
<path d="M279 1982 c10 -19 6 -92 -6 -101 -4 -3 -9 -22 -10 -41 -5 -110 -8
-160 -11 -160 -2 0 -17 14 -32 30 -15 17 -33 30 -38 30 -6 0 -12 6 -15 13 -2
6 -8 9 -12 5 -8 -7 38 -58 53 -58 13 -1 41 -47 46 -76 2 -16 5 -54 6 -84 2
-50 3 -52 10 -21 4 18 6 52 4 75 -5 53 11 27 20 -34 4 -31 3 -40 -4 -30 -6 9
-10 10 -10 3 0 -6 4 -14 9 -18 6 -3 10 -27 9 -54 0 -50 22 -91 50 -91 9 0 7 8
-7 26 -19 24 -21 38 -19 124 3 86 1 101 -17 120 -31 35 -24 173 17 320 3 8 3
12 1 8 -8 -14 -22 -8 -28 12 -3 11 -11 20 -16 20 -6 0 -6 -6 0 -18z"/>
<path d="M1835 1990 c3 -5 8 -10 11 -10 2 0 4 5 4 10 0 6 -5 10 -11 10 -5 0
-7 -4 -4 -10z"/>
<path d="M2350 1995 c-1 -5 -2 -14 -1 -19 1 -5 -3 -12 -9 -16 -7 -4 -15 -58
-20 -131 -5 -68 -11 -131 -14 -139 -3 -8 -8 -40 -10 -70 -4 -61 -34 -315 -40
-343 -3 -11 -2 -25 1 -33 6 -17 26 -19 20 -1 -2 6 8 20 22 30 l26 18 -29 -7
c-27 -6 -29 -5 -23 17 4 13 14 83 22 154 8 72 20 157 25 190 10 65 23 189 25
245 1 19 5 47 9 62 4 15 6 33 3 40 -3 7 -6 9 -7 3z"/>
<path d="M1323 1974 c-3 -8 -2 -19 3 -24 5 -5 9 1 9 16 0 28 -3 30 -12 8z"/>
<path d="M1592 1978 c3 -7 12 -14 21 -16 12 -2 15 1 11 12 -7 19 -38 22 -32 4z"/>
<path d="M1894 1975 c5 -15 4 -16 -8 -6 -10 8 -16 9 -21 1 -3 -5 0 -10 7 -11
7 0 24 -2 38 -5 17 -3 20 -1 12 5 -8 4 -13 12 -12 17 1 5 -4 10 -11 13 -8 2
-10 -2 -5 -14z"/>
<path d="M1930 1980 c0 -5 5 -10 11 -10 5 0 7 5 4 10 -3 6 -8 10 -11 10 -2 0
-4 -4 -4 -10z"/>
<path d="M157 1946 c-10 -14 -17 -29 -17 -33 0 -4 -12 -18 -27 -30 -14 -13
-23 -26 -20 -30 8 -8 39 23 56 55 7 13 16 20 21 17 13 -8 22 13 12 31 -7 13
-11 12 -25 -10z"/>
<path d="M1216 1953 c-6 -14 -5 -15 5 -6 7 7 10 15 7 18 -3 3 -9 -2 -12 -12z"/>
<path d="M1957 1955 c-16 -11 -14 -13 15 -20 18 -4 35 -9 38 -10 22 -8 69 -30
90 -42 14 -7 38 -19 53 -25 17 -6 26 -16 23 -24 -6 -16 10 -28 24 -19 18 11
-49 78 -112 113 -57 32 -60 33 -74 15 -13 -17 -14 -17 -7 2 3 11 3 17 -2 13
-4 -4 -13 -4 -19 1 -7 6 -18 4 -29 -4z m188 -75 c3 -5 2 -10 -4 -10 -5 0 -13
5 -16 10 -3 6 -2 10 4 10 5 0 13 -4 16 -10z"/>
<path d="M1641 1934 c0 -11 3 -14 6 -6 3 7 2 16 -1 19 -3 4 -6 -2 -5 -13z"/>
<path d="M1230 1929 c0 -5 5 -7 10 -4 6 3 10 8 10 11 0 2 -4 4 -10 4 -5 0 -10
-5 -10 -11z"/>
<path d="M1570 1931 c0 -5 5 -13 10 -16 6 -3 10 -2 10 4 0 5 -4 13 -10 16 -5
3 -10 2 -10 -4z"/>
<path d="M1667 1933 c-3 -5 1 -17 9 -28 14 -18 14 -18 14 2 0 23 -15 39 -23
26z"/>
<path d="M1310 1901 c0 -5 7 -11 14 -14 10 -4 13 -1 9 9 -6 15 -23 19 -23 5z"/>
<path d="M1713 1889 c2 -23 4 -23 22 -5 12 12 12 15 -5 19 -14 3 -18 0 -17
-14z"/>
<path d="M1805 1860 c3 -5 11 -10 16 -10 6 0 7 5 4 10 -3 6 -11 10 -16 10 -6
0 -7 -4 -4 -10z"/>
<path d="M33 1847 c-33 -11 -45 -27 -20 -27 7 0 19 -6 26 -12 6 -7 15 -13 19
-13 4 -1 21 -9 39 -18 39 -21 49 -22 33 -3 -6 8 -27 20 -46 26 -39 13 -40 17
-17 42 18 20 14 20 -34 5z"/>
<path d="M1495 1850 c-3 -5 -2 -10 4 -10 5 0 13 5 16 10 3 6 2 10 -4 10 -5 0
-13 -4 -16 -10z"/>
<path d="M1691 1850 c-9 -5 -8 -9 5 -14 9 -4 21 -3 26 2 12 12 -15 23 -31 12z"/>
<path d="M1143 1833 c2 -12 6 -26 10 -29 11 -11 8 19 -3 36 -8 12 -9 10 -7 -7z"/>
<path d="M1853 1843 c4 -3 5 -9 1 -14 -3 -5 4 -9 15 -9 12 0 21 5 21 10 0 6
-4 10 -9 10 -5 0 -15 2 -23 3 -7 2 -10 2 -5 0z"/>
<path d="M1915 1816 c11 -7 31 -16 45 -20 19 -5 16 -2 -10 13 -40 23 -65 28
-35 7z"/>
<path d="M527 1801 c3 -11 9 -21 14 -21 5 0 9 -26 8 -57 -3 -71 10 -163 22
-163 5 0 6 13 3 29 -4 16 -1 32 5 35 6 4 11 31 11 59 0 29 7 64 14 80 8 15 12
27 9 27 -12 0 -32 -36 -33 -57 0 -13 -4 -23 -10 -23 -5 0 -10 16 -10 35 0 22
-8 44 -19 57 l-20 20 6 -21z m50 -123 c-3 -8 -6 -5 -6 6 -1 11 2 17 5 13 3 -3
4 -12 1 -19z"/>
<path d="M492 1775 c0 -16 2 -22 5 -12 2 9 2 23 0 30 -3 6 -5 -1 -5 -18z"/>
<path d="M962 1784 c-16 -8 -19 -13 -10 -16 10 -4 10 -8 -2 -23 -13 -16 -13
-18 0 -13 8 2 17 13 19 24 2 10 8 22 14 26 21 13 2 15 -21 2z"/>
<path d="M1150 1750 c0 -5 7 -10 16 -10 8 0 12 5 9 10 -3 6 -10 10 -16 10 -5
0 -9 -4 -9 -10z"/>
<path d="M2220 1755 c0 -9 30 -65 34 -65 2 0 -1 16 -7 35 -6 19 -14 35 -19 35
-4 0 -8 -2 -8 -5z"/>
<path d="M1205 1730 c10 -11 20 -20 22 -20 2 0 -2 9 -9 20 -7 11 -17 20 -22
20 -5 0 -1 -9 9 -20z"/>
<path d="M695 1730 c-3 -5 -2 -10 4 -10 5 0 13 5 16 10 3 6 2 10 -4 10 -5 0
-13 -4 -16 -10z"/>
<path d="M1395 1730 c3 -5 8 -10 11 -10 2 0 4 5 4 10 0 6 -5 10 -11 10 -5 0
-7 -4 -4 -10z"/>
<path d="M1020 1719 c0 -4 13 -17 28 -28 l29 -20 19 25 19 26 27 -22 c19 -14
38 -20 60 -18 l33 3 -40 19 c-40 18 -175 30 -175 15z"/>
<path d="M887 1703 c-4 -3 -7 -11 -7 -17 0 -6 5 -5 12 2 6 6 9 14 7 17 -3 3
-9 2 -12 -2z"/>
<path d="M909 1678 c-12 -23 -12 -23 10 -4 23 21 26 26 11 26 -5 0 -15 -10
-21 -22z"/>
<path d="M1400 1690 c-22 -14 -5 -24 38 -22 20 1 57 3 82 3 40 1 42 3 25 15
-21 16 -122 19 -145 4z"/>
<path d="M1101 1681 c-10 -7 -11 -13 -2 -30 7 -12 17 -19 23 -15 7 4 6 9 -2
14 -7 4 -10 15 -7 24 7 18 7 19 -12 7z"/>
<path d="M670 1668 c0 -3 27 -6 59 -5 32 1 57 5 54 10 -5 9 -113 5 -113 -5z"/>
<path d="M1039 1654 c-9 -11 -9 -18 -2 -22 16 -10 -3 -33 -52 -64 -50 -32
-105 -87 -105 -105 0 -4 -9 -19 -19 -32 -16 -20 -17 -27 -6 -38 18 -17 31 -17
16 0 -17 22 51 109 131 167 l69 50 10 -30 c11 -29 19 -34 47 -31 6 1 12 -3 12
-9 0 -5 7 -10 15 -10 7 0 18 -7 23 -16 5 -9 12 -15 15 -15 4 0 25 -19 48 -44
44 -48 59 -54 78 -31 7 8 22 12 34 9 20 -4 20 -3 4 7 -9 6 -21 9 -26 6 -24
-15 -105 38 -141 92 -8 13 -25 24 -37 25 -13 1 -23 5 -23 9 0 4 -7 5 -15 2
-10 -4 -13 -2 -10 7 3 8 -4 18 -17 24 -17 7 -22 18 -21 38 2 30 -8 35 -28 11z"/>
<path d="M1335 1660 c-3 -5 1 -10 9 -10 8 0 18 5 21 10 3 6 -1 10 -9 10 -8 0
-18 -4 -21 -10z"/>
<path d="M2261 1654 c0 -11 3 -14 6 -6 3 7 2 16 -1 19 -3 4 -6 -2 -5 -13z"/>
<path d="M636 1652 c-3 -6 -1 -14 5 -17 14 -9 20 -2 10 14 -6 8 -11 9 -15 3z"/>
<path d="M859 1644 c-9 -12 -10 -15 -1 -10 7 4 12 2 12 -5 0 -10 3 -10 12 -1
8 8 9 15 2 22 -8 8 -15 6 -25 -6z"/>
<path d="M1640 1633 c11 -24 30 -31 30 -11 0 6 -3 8 -7 5 -3 -4 -12 1 -20 11
-13 15 -13 15 -3 -5z"/>
<path d="M1710 1639 c0 -5 5 -7 10 -4 6 3 10 8 10 11 0 2 -4 4 -10 4 -5 0 -10
-5 -10 -11z"/>
<path d="M1150 1630 c0 -5 5 -10 11 -10 5 0 7 5 4 10 -3 6 -8 10 -11 10 -2 0
-4 -4 -4 -10z"/>
<path d="M973 1608 c-18 -11 -33 -24 -33 -29 0 -15 14 -9 50 21 39 34 31 38
-17 8z"/>
<path d="M1730 1614 c0 -8 5 -12 10 -9 6 4 8 11 5 16 -9 14 -15 11 -15 -7z"/>
<path d="M1 1589 c0 -8 19 -34 43 -56 25 -23 43 -43 42 -45 -1 -1 6 -11 16
-20 14 -14 18 -15 18 -4 0 19 -45 68 -53 59 -4 -3 -7 1 -7 11 0 9 -11 21 -25
28 -13 6 -26 18 -28 27 -4 14 -5 14 -6 0z"/>
<path d="M1609 1578 c-1 -13 -1 -29 1 -37 1 -7 -9 -25 -22 -39 l-23 -26 25 16
c20 12 25 24 27 62 1 25 0 46 -2 46 -3 0 -6 -10 -6 -22z"/>
<path d="M2853 1590 c-34 -3 -65 -9 -70 -14 -5 -5 30 -6 82 -1 50 4 100 7 113
6 12 0 22 4 22 10 0 10 -19 10 -147 -1z"/>
<path d="M1745 1574 c22 -16 35 -18 35 -5 0 5 -12 11 -27 14 -26 5 -26 4 -8
-9z"/>
<path d="M2655 1570 c-18 -8 -17 -9 8 -9 15 -1 27 4 27 9 0 12 -8 12 -35 0z"/>
<path d="M2330 1541 c0 -6 4 -13 10 -16 6 -3 7 1 4 9 -7 18 -14 21 -14 7z"/>
<path d="M2929 1536 c-2 -3 -34 -6 -72 -8 -37 -1 -67 -6 -67 -11 0 -6 42 -6
163 2 5 1 5 6 2 11 -6 10 -19 13 -26 6z"/>
<path d="M2970 1530 c0 -5 5 -10 10 -10 6 0 10 5 10 10 0 6 -4 10 -10 10 -5 0
-10 -4 -10 -10z"/>
<path d="M590 1515 c7 -8 17 -15 22 -15 5 0 3 7 -6 15 -8 8 -18 15 -22 15 -3
0 -1 -7 6 -15z"/>
<path d="M1037 1511 c-3 -12 -1 -21 3 -21 15 0 23 21 12 32 -6 6 -11 2 -15
-11z"/>
<path d="M1225 1520 c-3 -6 1 -7 9 -4 18 7 21 14 7 14 -6 0 -13 -4 -16 -10z"/>
<path d="M2574 1518 c-4 -7 -4 -10 1 -6 4 4 15 2 24 -5 14 -11 14 -10 2 6 -16
20 -18 21 -27 5z"/>
<path d="M2730 1509 c0 -11 27 -12 34 -1 2 4 -4 9 -15 9 -10 1 -19 -2 -19 -8z"/>
<path d="M852 1498 c-15 -15 -15 -28 0 -28 6 0 8 3 5 7 -4 3 -2 12 4 20 14 16
7 17 -9 1z"/>
<path d="M995 1499 c-4 -6 -5 -12 -2 -15 2 -3 7 2 10 11 7 17 1 20 -8 4z"/>
<path d="M1110 1495 c0 -13 4 -14 20 -5 11 6 20 13 20 15 0 3 -9 5 -20 5 -11
0 -20 -7 -20 -15z"/>
<path d="M1477 1504 c-4 -4 -7 -18 -7 -32 0 -21 -2 -22 -15 -12 -16 13 -20 3
-7 -17 13 -21 50 18 43 45 -3 13 -9 20 -14 16z"/>
<path d="M1537 1503 c-4 -3 -7 -11 -7 -17 0 -6 5 -5 12 2 6 6 9 14 7 17 -3 3
-9 2 -12 -2z"/>
<path d="M1425 1490 c-3 -5 1 -10 10 -10 9 0 13 5 10 10 -3 6 -8 10 -10 10 -2
0 -7 -4 -10 -10z"/>
<path d="M2628 1493 c6 -2 18 -2 25 0 6 3 1 5 -13 5 -14 0 -19 -2 -12 -5z"/>
<path d="M567 1483 c-4 -3 -7 -11 -7 -17 0 -6 5 -5 12 2 6 6 9 14 7 17 -3 3
-9 2 -12 -2z"/>
<path d="M2340 1481 c0 -5 -3 -17 -7 -27 -6 -15 -4 -15 14 2 20 19 21 34 2 34
-5 0 -9 -4 -9 -9z"/>
<path d="M1060 1469 c0 -5 5 -7 10 -4 6 3 10 8 10 11 0 2 -4 4 -10 4 -5 0 -10
-5 -10 -11z"/>
<path d="M1189 1453 c-13 -16 -12 -17 4 -4 9 7 17 15 17 17 0 8 -8 3 -21 -13z"/>
<path d="M1522 1450 c14 -22 24 -19 15 5 -4 8 -11 15 -17 15 -6 0 -6 -7 2 -20z"/>
<path d="M2690 1450 c0 -5 5 -10 10 -10 6 0 10 5 10 10 0 6 -4 10 -10 10 -5 0
-10 -4 -10 -10z"/>
<path d="M605 1440 c4 -6 11 -8 16 -5 14 9 11 15 -7 15 -8 0 -12 -5 -9 -10z"/>
<path d="M824 1436 c-10 -8 -16 -17 -13 -20 3 -3 14 3 24 14 21 23 17 26 -11
6z"/>
<path d="M1218 1442 c-1 -5 -25 -12 -51 -15 -31 -4 -46 -3 -42 3 10 16 3 14
-90 -26 -16 -6 -49 -17 -72 -23 -58 -16 -62 -29 -8 -29 25 1 49 7 53 14 8 14
65 26 139 28 39 2 57 7 68 22 14 19 19 34 11 34 -2 0 -6 -4 -8 -8z"/>
<path d="M2896 1442 c-2 -4 4 -13 15 -20 21 -13 22 -12 13 12 -7 17 -20 21
-28 8z"/>
<path d="M1670 1436 c0 -2 7 -9 15 -16 9 -7 15 -8 15 -2 0 5 -7 12 -15 16 -8
3 -15 4 -15 2z"/>
<path d="M2950 1429 c0 -5 5 -7 10 -4 6 3 10 8 10 11 0 2 -4 4 -10 4 -5 0 -10
-5 -10 -11z"/>
<path d="M1645 1410 c-3 -5 1 -10 9 -10 9 0 16 5 16 10 0 6 -4 10 -9 10 -6 0
-13 -4 -16 -10z"/>
<path d="M2320 1404 c0 -8 5 -12 10 -9 6 4 8 11 5 16 -9 14 -15 11 -15 -7z"/>
<path d="M1729 1398 c7 -10 11 -24 8 -31 -3 -8 3 -22 14 -31 19 -15 19 -15 13
11 -4 16 -16 37 -27 48 -13 13 -16 14 -8 3z"/>
<path d="M760 1384 c0 -8 5 -12 10 -9 6 3 10 10 10 16 0 5 -4 9 -10 9 -5 0
-10 -7 -10 -16z"/>
<path d="M2950 1380 c-9 -16 -8 -18 5 -14 8 4 15 12 15 20 0 20 -7 17 -20 -6z"/>
<path d="M1368 1377 c24 -7 36 -7 44 1 9 9 1 12 -32 11 l-45 -1 33 -11z"/>
<path d="M1440 1382 c0 -4 9 -8 20 -8 11 0 20 4 20 8 0 4 -9 8 -20 8 -11 0
-20 -4 -20 -8z"/>
<path d="M1568 1383 c7 -3 16 -2 19 1 4 3 -2 6 -13 5 -11 0 -14 -3 -6 -6z"/>
<path d="M2466 1381 c-4 -5 3 -7 14 -4 23 6 26 13 6 13 -8 0 -17 -4 -20 -9z"/>
<path d="M2796 1381 c-4 -7 -5 -15 -2 -18 9 -9 19 4 14 18 -4 11 -6 11 -12 0z"/>
<path d="M2890 1368 c0 -19 2 -20 10 -8 13 19 13 30 0 30 -5 0 -10 -10 -10
-22z"/>
<path d="M823 1360 c-13 -5 -23 -14 -23 -19 0 -6 7 -8 15 -5 8 4 15 1 15 -6 0
-6 5 -8 11 -4 6 3 15 0 20 -7 6 -10 35 -15 101 -16 51 -1 138 -9 193 -18 55
-8 143 -17 195 -20 52 -2 130 -7 172 -10 42 -3 79 -1 82 4 5 8 -61 16 -224 26
-91 6 -188 16 -215 22 -11 2 -39 7 -62 10 -24 3 -40 9 -37 14 3 5 -2 9 -10 9
-9 0 -16 -5 -16 -10 0 -7 -6 -7 -20 0 -11 6 -20 7 -20 2 0 -11 -53 -11 -60 0
-4 4 -26 10 -50 12 -25 2 -44 9 -42 15 1 6 1 11 0 10 -2 0 -13 -4 -25 -9z"/>
<path d="M1180 1363 c0 -12 38 -43 53 -43 8 0 7 4 -3 10 -13 9 -13 11 0 21 13
9 13 10 0 6 -8 -2 -23 0 -32 5 -10 5 -18 5 -18 1z"/>
<path d="M2320 1345 c0 -14 2 -25 4 -25 2 0 6 11 8 25 3 14 1 25 -3 25 -5 0
-9 -11 -9 -25z"/>
<path d="M755 1340 c-3 -5 -1 -10 4 -10 6 0 11 5 11 10 0 6 -2 10 -4 10 -3 0
-8 -4 -11 -10z"/>
<path d="M1097 1339 c7 -7 15 -10 18 -7 3 3 -2 9 -12 12 -14 6 -15 5 -6 -5z"/>
<path d="M1510 1336 c0 -9 5 -16 10 -16 6 0 10 4 10 9 0 6 -4 13 -10 16 -5 3
-10 -1 -10 -9z"/>
<path d="M2450 1340 c0 -5 5 -10 10 -10 6 0 10 5 10 10 0 6 -4 10 -10 10 -5 0
-10 -4 -10 -10z"/>
<path d="M1279 1329 c-10 -6 -3 -9 20 -9 19 0 31 3 27 7 -10 11 -32 12 -47 2z"/>
<path d="M1544 1322 c5 -8 66 -4 66 4 0 2 -16 4 -36 4 -19 0 -33 -4 -30 -8z"/>
<path d="M2847 1323 c-11 -10 -8 -20 8 -27 10 -4 15 1 15 14 0 20 -11 26 -23
13z"/>
<path d="M2960 1315 c0 -8 5 -15 10 -15 6 0 10 7 10 15 0 8 -4 15 -10 15 -5 0
-10 -7 -10 -15z"/>
<path d="M2902 1290 c-7 -18 -12 -40 -11 -49 0 -9 5 -1 10 18 l10 33 25 -23
c13 -12 27 -19 31 -16 3 4 12 2 20 -4 10 -9 13 -8 13 5 0 10 -8 16 -22 16 -12
0 -32 12 -44 27 l-21 26 -11 -33z"/>
<path d="M1600 1299 c0 -5 5 -7 10 -4 6 3 10 8 10 11 0 2 -4 4 -10 4 -5 0 -10
-5 -10 -11z"/>
<path d="M1764 1276 c11 -38 26 -38 26 -1 0 18 -16 35 -34 35 -2 0 2 -15 8
-34z"/>
<path d="M2640 1288 c0 -7 11 -13 25 -13 30 0 27 19 -3 23 -13 2 -22 -2 -22
-10z"/>
<path d="M2741 1291 c-10 -6 -10 -10 -1 -16 13 -8 24 -1 19 14 -3 6 -10 7 -18
2z"/>
<path d="M838 1276 c-28 -21 -21 -26 12 -10 17 9 30 17 30 20 0 9 -26 3 -42
-10z"/>
<path d="M2340 1275 c0 -9 6 -12 15 -9 8 4 12 10 9 15 -8 14 -24 10 -24 -6z"/>
<path d="M785 1260 c-3 -5 -1 -10 4 -10 6 0 11 5 11 10 0 6 -2 10 -4 10 -3 0
-8 -4 -11 -10z"/>
<path d="M1620 1260 c0 -5 9 -10 20 -10 22 0 27 -15 8 -23 -7 -3 3 -5 22 -5
19 0 27 2 18 5 -10 2 -18 8 -18 13 0 13 31 5 40 -10 7 -12 10 -12 15 2 4 10 4
22 0 28 -8 13 -105 13 -105 0z"/>
<path d="M910 1245 c0 -8 2 -15 4 -15 2 0 6 7 10 15 3 8 1 15 -4 15 -6 0 -10
-7 -10 -15z"/>
<path d="M956 1245 c-3 -8 -1 -15 4 -15 6 0 10 7 10 15 0 8 -2 15 -4 15 -2 0
-6 -7 -10 -15z"/>
<path d="M1221 1244 c0 -11 3 -14 6 -6 3 7 2 16 -1 19 -3 4 -6 -2 -5 -13z"/>
<path d="M2330 1173 c0 -45 3 -84 8 -86 4 -3 8 7 8 21 1 15 3 48 5 74 2 29 -2
53 -9 60 -9 9 -12 -5 -12 -69z"/>
<path d="M2805 1240 c4 -6 11 -8 16 -5 14 9 11 15 -7 15 -8 0 -12 -5 -9 -10z"/>
<path d="M1055 1230 c3 -5 1 -10 -6 -10 -29 0 5 -14 41 -17 39 -4 55 9 24 21
-8 3 -12 2 -9 -4 10 -16 -12 -12 -29 5 -17 17 -30 20 -21 5z"/>
<path d="M1195 1230 c-3 -5 -1 -10 4 -10 6 0 11 5 11 10 0 6 -2 10 -4 10 -3 0
-8 -4 -11 -10z"/>
<path d="M2228 1202 c-8 -20 -19 -53 -23 -72 -4 -19 -18 -57 -31 -84 -14 -27
-22 -51 -19 -54 3 -3 5 0 5 6 0 6 6 17 13 24 13 13 57 121 60 148 1 8 8 20 16
26 9 7 11 16 5 27 -8 14 -12 10 -26 -21z"/>
<path d="M2556 1225 c-9 -26 -7 -32 5 -12 6 10 9 21 6 23 -2 3 -7 -2 -11 -11z"/>
<path d="M2935 1230 c3 -5 11 -10 16 -10 6 0 7 5 4 10 -3 6 -11 10 -16 10 -6
0 -7 -4 -4 -10z"/>
<path d="M1144 1198 c-3 -4 3 -5 12 -1 12 4 15 3 10 -5 -4 -7 -3 -12 3 -12 5
0 13 5 16 10 4 6 10 8 15 5 5 -3 11 -1 14 4 3 5 -10 9 -30 8 -19 -1 -37 -5
-40 -9z"/>
<path d="M1576 1194 c-8 -20 -8 -24 2 -24 4 0 8 9 9 20 2 24 -3 26 -11 4z"/>
<path d="M1790 1200 c0 -5 5 -10 11 -10 5 0 7 5 4 10 -3 6 -8 10 -11 10 -2 0
-4 -4 -4 -10z"/>
<path d="M990 1193 c0 -6 8 -17 18 -24 16 -13 16 -13 2 6 -8 11 -16 22 -17 24
-2 2 -3 0 -3 -6z"/>
<path d="M1240 1190 c0 -5 5 -10 11 -10 5 0 7 5 4 10 -3 6 -8 10 -11 10 -2 0
-4 -4 -4 -10z"/>
<path d="M1490 1190 c0 -6 -4 -8 -10 -5 -5 3 -10 1 -10 -5 0 -7 -6 -8 -19 0
-15 7 -23 6 -35 -6 -20 -19 -20 -24 -1 -24 8 0 14 3 13 8 -3 7 5 12 23 12 5 0
7 -5 3 -11 -5 -8 -1 -8 12 0 41 23 46 28 35 35 -6 4 -11 2 -11 -4z"/>
<path d="M2462 1193 c-17 -7 -5 -23 18 -23 13 0 17 5 14 15 -6 16 -11 17 -32
8z"/>
<path d="M1305 1180 c-3 -5 -1 -10 4 -10 6 0 11 5 11 10 0 6 -2 10 -4 10 -3 0
-8 -4 -11 -10z"/>
<path d="M1039 1166 c8 -9 24 -16 35 -15 65 5 107 -2 126 -21 15 -15 20 -16
20 -5 0 22 -35 36 -105 40 -36 2 -70 7 -77 11 -9 5 -8 2 1 -10z"/>
<path d="M2280 1170 c0 -5 5 -10 11 -10 5 0 7 5 4 10 -3 6 -8 10 -11 10 -2 0
-4 -4 -4 -10z"/>
<path d="M2760 1160 c0 -5 4 -10 9 -10 6 0 13 5 16 10 3 6 -1 10 -9 10 -9 0
-16 -4 -16 -10z"/>
<path d="M1511 1144 c0 -11 3 -14 6 -6 3 7 2 16 -1 19 -3 4 -6 -2 -5 -13z"/>
<path d="M2920 1150 c0 -5 5 -10 10 -10 6 0 10 5 10 10 0 6 -4 10 -10 10 -5 0
-10 -4 -10 -10z"/>
<path d="M710 1142 c0 -5 7 -15 15 -22 8 -7 15 -8 15 -2 0 5 -7 15 -15 22 -8
7 -15 8 -15 2z"/>
<path d="M1269 1124 c-6 -7 -15 -12 -19 -9 -5 3 -11 1 -14 -4 -10 -16 23 -21
38 -6 8 8 27 15 42 15 33 0 29 7 -8 14 -16 3 -32 -1 -39 -10z"/>
<path d="M2410 1129 c0 -8 5 -20 12 -27 9 -9 8 -12 -5 -12 -18 0 -24 -35 -7
-45 6 -3 10 2 10 12 0 11 5 24 11 30 8 8 7 17 -5 34 -11 16 -16 19 -16 8z"/>
<path d="M2504 1129 c-5 -9 2 -13 19 -10 4 0 7 -4 7 -10 0 -5 5 -7 10 -4 6 3
10 10 10 14 0 12 -39 21 -46 10z"/>
<path d="M1386 1114 c-5 -14 -4 -15 9 -4 17 14 19 20 6 20 -5 0 -12 -7 -15
-16z"/>
<path d="M650 1110 c0 -5 5 -10 11 -10 5 0 7 5 4 10 -3 6 -8 10 -11 10 -2 0
-4 -4 -4 -10z"/>
<path d="M2837 1105 c-4 -8 -2 -17 3 -20 6 -4 10 3 10 14 0 25 -6 27 -13 6z"/>
<path d="M971 1091 c-8 -5 -9 -11 -3 -15 5 -3 12 1 16 9 6 17 6 18 -13 6z"/>
<path d="M1064 1085 c8 -8 20 -15 27 -15 7 0 4 6 -7 15 -25 19 -40 19 -20 0z"/>
<path d="M2940 1091 c0 -5 11 -8 25 -8 13 0 22 3 19 8 -3 5 -14 9 -25 9 -10 0
-19 -4 -19 -9z"/>
<path d="M2527 1083 c-4 -3 -7 -11 -7 -17 0 -6 5 -5 12 2 6 6 9 14 7 17 -3 3
-9 2 -12 -2z"/>
<path d="M2560 1076 c0 -8 4 -17 9 -20 5 -4 7 3 4 14 -6 23 -13 26 -13 6z"/>
<path d="M1382 1060 c0 -14 2 -19 5 -12 2 6 2 18 0 25 -3 6 -5 1 -5 -13z"/>
<path d="M2455 1050 c-3 -5 -2 -10 4 -10 5 0 13 5 16 10 3 6 2 10 -4 10 -5 0
-13 -4 -16 -10z"/>
<path d="M2598 1053 c7 -3 16 -2 19 1 4 3 -2 6 -13 5 -11 0 -14 -3 -6 -6z"/>
<path d="M2735 1050 c-3 -5 -1 -10 4 -10 6 0 11 5 11 10 0 6 -2 10 -4 10 -3 0
-8 -4 -11 -10z"/>
<path d="M2939 1008 c-12 -22 -11 -22 7 -8 10 8 20 15 22 16 2 1 -1 5 -7 8 -5
4 -15 -4 -22 -16z"/>
<path d="M1227 1013 c-4 -3 -7 -11 -7 -17 0 -6 5 -5 12 2 6 6 9 14 7 17 -3 3
-9 2 -12 -2z"/>
<path d="M1282 1004 c-7 -8 -8 -14 -3 -14 10 0 25 19 20 25 -2 1 -10 -3 -17
-11z"/>
<path d="M1310 1011 c0 -6 4 -13 10 -16 6 -3 7 1 4 9 -7 18 -14 21 -14 7z"/>
<path d="M2655 1010 c3 -5 11 -10 16 -10 6 0 7 5 4 10 -3 6 -11 10 -16 10 -6
0 -7 -4 -4 -10z"/>
<path d="M1060 995 c-11 -13 -10 -14 4 -9 9 3 16 10 16 15 0 13 -6 11 -20 -6z"/>
<path d="M2320 1003 c0 -4 5 -15 10 -23 8 -13 10 -13 10 2 0 9 -4 20 -10 23
-5 3 -10 3 -10 -2z"/>
<path d="M2782 980 c0 -14 2 -19 5 -12 2 6 2 18 0 25 -3 6 -5 1 -5 -13z"/>
<path d="M1148 983 c6 -2 18 -2 25 0 6 3 1 5 -13 5 -14 0 -19 -2 -12 -5z"/>
<path d="M2130 980 c0 -5 5 -10 11 -10 5 0 7 5 4 10 -3 6 -8 10 -11 10 -2 0
-4 -4 -4 -10z"/>
<path d="M965 970 c3 -5 8 -10 11 -10 2 0 4 5 4 10 0 6 -5 10 -11 10 -5 0 -7
-4 -4 -10z"/>
<path d="M1285 970 c-3 -6 1 -7 9 -4 18 7 21 14 7 14 -6 0 -13 -4 -16 -10z"/>
<path d="M2165 970 c4 -6 11 -8 16 -5 14 9 11 15 -7 15 -8 0 -12 -5 -9 -10z"/>
<path d="M2216 968 c7 -11 34 -10 34 1 0 6 -9 9 -19 8 -11 0 -17 -5 -15 -9z"/>
<path d="M2940 970 c0 -5 5 -10 11 -10 5 0 7 5 4 10 -3 6 -8 10 -11 10 -2 0
-4 -4 -4 -10z"/>
<path d="M575 961 c-3 -5 4 -16 15 -24 57 -40 107 -158 116 -275 1 -24 7 -49
12 -55 5 -7 17 -48 27 -92 9 -44 21 -84 26 -89 5 -6 9 -21 9 -35 0 -13 3 -22
6 -18 8 8 44 -25 44 -40 0 -7 5 -13 11 -13 6 0 29 -14 50 -31 22 -17 58 -41
82 -53 23 -12 55 -30 70 -40 21 -14 31 -16 40 -7 8 8 5 11 -11 11 -13 0 -25 7
-28 15 -4 8 -13 15 -20 15 -12 0 -67 32 -84 50 -3 3 -21 17 -40 32 -62 47 -87
72 -103 105 -17 32 -77 264 -97 373 -9 48 -21 74 -52 114 -44 56 -64 71 -73
57z"/>
<path d="M1960 959 c0 -5 5 -7 10 -4 6 3 10 8 10 11 0 2 -4 4 -10 4 -5 0 -10
-5 -10 -11z"/>
<path d="M2820 960 c0 -5 4 -10 9 -10 6 0 13 5 16 10 3 6 -1 10 -9 10 -9 0
-16 -4 -16 -10z"/>
<path d="M1250 950 c0 -6 -10 -11 -22 -11 -14 -1 -17 -3 -7 -6 8 -2 26 0 39 5
19 7 20 10 7 15 -10 4 -17 2 -17 -3z"/>
<path d="M1305 949 c-9 -14 -2 -20 14 -10 8 6 9 11 3 15 -6 3 -14 1 -17 -5z"/>
<path d="M2116 947 c-18 -13 -13 -47 7 -47 7 0 7 4 -1 12 -17 17 -15 31 3 24
9 -3 15 0 15 9 0 18 -2 18 -24 2z"/>
<path d="M2161 920 c7 -18 15 -27 22 -23 8 5 8 8 -1 11 -7 2 -12 12 -12 23 0
10 -4 19 -9 19 -6 0 -6 -12 0 -30z"/>
<path d="M2330 940 c-9 -6 -10 -10 -3 -10 6 0 15 5 18 10 8 12 4 12 -15 0z"/>
<path d="M2508 943 c7 -3 16 -2 19 1 4 3 -2 6 -13 5 -11 0 -14 -3 -6 -6z"/>
<path d="M2991 924 c0 -11 3 -14 6 -6 3 7 2 16 -1 19 -3 4 -6 -2 -5 -13z"/>
<path d="M1257 923 c-10 -9 -9 -23 1 -23 5 0 9 7 9 15 0 17 -1 18 -10 8z"/>
<path d="M1615 919 c-4 -6 -5 -13 -2 -16 7 -7 27 6 27 18 0 12 -17 12 -25 -2z"/>
<path d="M851 904 c0 -11 3 -14 6 -6 3 7 2 16 -1 19 -3 4 -6 -2 -5 -13z"/>
<path d="M2865 910 c3 -5 10 -10 16 -10 5 0 9 5 9 10 0 6 -7 10 -16 10 -8 0
-12 -4 -9 -10z"/>
<path d="M2364 885 c-19 -14 -19 -14 1 -9 12 3 30 -3 44 -15 13 -12 29 -21 35
-21 6 0 6 3 1 8 -6 4 -22 17 -36 30 -23 20 -27 20 -45 7z"/>
<path d="M2695 891 c-3 -6 4 -9 15 -8 11 1 20 5 20 9 0 11 -28 10 -35 -1z"/>
<path d="M2070 885 c0 -5 -2 -57 -4 -115 -3 -58 -12 -130 -21 -160 -21 -73
-59 -152 -79 -169 -9 -7 -16 -19 -16 -25 0 -6 9 0 19 13 12 15 23 21 31 16 9
-5 11 -4 6 4 -4 6 4 32 18 57 31 55 58 185 57 273 -1 63 -1 64 18 47 10 -9 29
-37 42 -62 13 -24 28 -44 32 -44 9 0 -32 80 -48 93 -6 6 -6 10 3 14 20 8 14
22 -8 18 -14 -3 -25 5 -35 23 -8 15 -14 23 -15 17z"/>
<path d="M2100 874 c0 -8 5 -12 10 -9 6 4 8 11 5 16 -9 14 -15 11 -15 -7z"/>
<path d="M2790 878 c0 -4 12 -8 27 -8 14 0 23 3 19 7 -10 10 -46 11 -46 1z"/>
<path d="M2130 869 c0 -5 5 -7 10 -4 6 3 10 8 10 11 0 2 -4 4 -10 4 -5 0 -10
-5 -10 -11z"/>
<path d="M2160 870 c0 -5 5 -10 10 -10 6 0 10 5 10 10 0 6 -4 10 -10 10 -5 0
-10 -4 -10 -10z"/>
<path d="M2205 870 c3 -5 8 -10 11 -10 2 0 4 5 4 10 0 6 -5 10 -11 10 -5 0 -7
-4 -4 -10z"/>
<path d="M2880 870 c-9 -6 -10 -10 -3 -10 6 0 15 5 18 10 8 12 4 12 -15 0z"/>
<path d="M942 850 c0 -14 2 -19 5 -12 2 6 2 18 0 25 -3 6 -5 1 -5 -13z"/>
<path d="M2301 828 c-12 -39 -8 -58 11 -58 5 0 7 7 4 16 -7 17 19 54 37 54 5
0 7 -11 4 -25 -4 -24 -3 -24 13 -10 18 17 30 11 30 -16 0 -9 6 -19 13 -22 9
-3 7 -10 -5 -23 -15 -15 -18 -16 -18 -3 0 11 -9 15 -32 15 -60 -3 -81 -38 -33
-56 29 -11 29 -10 10 -46 -16 -30 -20 -84 -7 -84 4 0 8 18 9 41 0 22 8 48 17
58 9 10 14 20 11 23 -3 3 1 11 10 18 12 10 16 9 21 -5 4 -10 1 -21 -7 -27 -12
-8 -11 -9 1 -5 8 2 17 12 19 23 2 10 7 21 11 24 4 3 10 17 13 31 5 19 2 29 -8
33 -8 3 -15 14 -15 24 0 12 -16 25 -49 39 l-49 20 -11 -39z m51 -91 c11 -9 14
-18 8 -27 -7 -11 -11 -11 -24 -1 -16 14 -22 41 -8 41 4 0 15 -6 24 -13z"/>
<path d="M885 850 c3 -5 8 -10 11 -10 2 0 4 5 4 10 0 6 -5 10 -11 10 -5 0 -7
-4 -4 -10z"/>
<path d="M2170 840 c0 -5 5 -10 11 -10 5 0 7 5 4 10 -3 6 -8 10 -11 10 -2 0
-4 -4 -4 -10z"/>
<path d="M2227 824 c-2 -13 0 -21 4 -18 5 3 18 0 29 -6 27 -15 25 -2 -4 25
l-24 22 -5 -23z"/>
<path d="M2910 840 c0 -5 5 -10 10 -10 6 0 10 5 10 10 0 6 -4 10 -10 10 -5 0
-10 -4 -10 -10z"/>
<path d="M1997 819 c-4 -16 -3 -18 9 -8 7 6 11 15 8 20 -8 13 -11 11 -17 -12z"/>
<path d="M2446 815 c4 -8 8 -15 10 -15 2 0 4 7 4 15 0 8 -4 15 -10 15 -5 0 -7
-7 -4 -15z"/>
<path d="M20 796 c0 -31 6 -34 13 -6 3 11 1 23 -4 26 -5 3 -9 -6 -9 -20z"/>
<path d="M734 805 c5 -11 11 -28 13 -37 3 -10 11 -18 17 -18 6 0 17 -14 24
-32 6 -17 14 -29 18 -26 3 4 2 13 -2 20 -5 7 -7 23 -5 35 2 17 -1 21 -13 17
-10 -4 -18 1 -23 12 -4 11 -14 26 -22 34 -13 13 -14 13 -7 -5z"/>
<path d="M2761 804 c0 -11 3 -14 6 -6 3 7 2 16 -1 19 -3 4 -6 -2 -5 -13z"/>
<path d="M2470 798 c0 -9 -5 -18 -11 -20 -5 -2 4 -14 20 -26 36 -26 39 -16 11
30 -12 20 -20 27 -20 16z"/>
<path d="M2638 803 c7 -3 16 -2 19 1 4 3 -2 6 -13 5 -11 0 -14 -3 -6 -6z"/>
<path d="M2820 800 c0 -5 5 -10 10 -10 6 0 10 5 10 10 0 6 -4 10 -10 10 -5 0
-10 -4 -10 -10z"/>
<path d="M2876 795 c-3 -9 0 -15 9 -15 9 0 12 6 9 15 -4 8 -7 15 -9 15 -2 0
-5 -7 -9 -15z"/>
<path d="M1040 770 c0 -5 5 -10 11 -10 5 0 7 5 4 10 -3 6 -8 10 -11 10 -2 0
-4 -4 -4 -10z"/>
<path d="M2240 766 c0 -9 5 -16 10 -16 6 0 10 4 10 9 0 6 -4 13 -10 16 -5 3
-10 -1 -10 -9z"/>
<path d="M2685 765 c4 -11 8 -26 8 -32 0 -7 6 -13 14 -13 10 0 10 6 -4 28 -23
36 -28 41 -18 17z"/>
<path d="M1906 735 c-22 -19 -45 -35 -51 -35 -7 0 -18 -7 -25 -15 -7 -8 -16
-13 -20 -10 -4 2 -18 -7 -30 -20 -13 -14 -19 -25 -14 -25 5 0 2 -5 -6 -10 -8
-5 -10 -10 -4 -10 7 0 19 12 29 26 9 14 19 23 22 20 4 -3 21 5 39 19 18 14 37
25 43 25 6 0 11 4 11 9 0 5 9 12 19 16 10 3 21 15 24 25 3 11 4 20 4 20 -1 -1
-20 -16 -41 -35z"/>
<path d="M2845 750 c3 -5 8 -10 11 -10 2 0 4 5 4 10 0 6 -5 10 -11 10 -5 0 -7
-4 -4 -10z"/>
<path d="M2915 750 c3 -5 12 -7 20 -3 21 7 19 13 -6 13 -11 0 -18 -4 -14 -10z"/>
<path d="M2222 730 c0 -14 2 -19 5 -12 2 6 2 18 0 25 -3 6 -5 1 -5 -13z"/>
<path d="M2555 740 c3 -5 8 -10 11 -10 2 0 4 5 4 10 0 6 -5 10 -11 10 -5 0 -7
-4 -4 -10z"/>
<path d="M2645 740 c-3 -5 1 -10 10 -10 9 0 13 5 10 10 -3 6 -8 10 -10 10 -2
0 -7 -4 -10 -10z"/>
<path d="M820 724 c0 -8 5 -12 10 -9 6 4 8 11 5 16 -9 14 -15 11 -15 -7z"/>
<path d="M1460 729 c0 -5 5 -7 10 -4 6 3 10 8 10 11 0 2 -4 4 -10 4 -5 0 -10
-5 -10 -11z"/>
<path d="M2873 722 c0 -12 5 -22 9 -22 11 0 10 12 -2 30 -7 12 -9 10 -7 -8z"/>
<path d="M2447 722 c-24 -5 -15 -28 9 -24 10 1 27 3 36 4 9 1 15 5 12 9 -6 10
-36 16 -57 11z"/>
<path d="M2730 726 c0 -9 30 -14 35 -6 4 6 -3 10 -14 10 -12 0 -21 -2 -21 -4z"/>
<path d="M2955 721 c-3 -5 -1 -12 5 -16 5 -3 10 1 10 9 0 18 -6 21 -15 7z"/>
<path d="M860 682 c0 -10 9 -24 19 -32 11 -7 17 -18 14 -23 -3 -6 -1 -7 6 -3
7 5 30 -7 57 -29 25 -21 47 -35 50 -32 3 2 2 17 -2 32 -5 19 -9 23 -15 14 -12
-20 -41 9 -34 35 6 21 6 21 -9 2 -16 -20 -16 -20 -17 0 0 10 -3 13 -6 7 -7
-19 -43 4 -43 27 0 11 -4 20 -10 20 -5 0 -10 -8 -10 -18z"/>
<path d="M2691 670 c-16 -14 -19 -20 -8 -20 8 0 18 7 21 16 3 8 10 12 16 9 5
-3 10 -1 10 4 0 16 -12 13 -39 -9z"/>
<path d="M2590 656 c0 -9 30 -14 35 -6 4 6 -3 10 -14 10 -12 0 -21 -2 -21 -4z"/>
<path d="M2960 651 c0 -9 30 -24 36 -18 2 1 -6 8 -16 15 -11 7 -20 8 -20 3z"/>
<path d="M2455 640 c3 -5 11 -10 16 -10 6 0 7 5 4 10 -3 6 -11 10 -16 10 -6 0
-7 -4 -4 -10z"/>
<path d="M2740 639 c0 -5 5 -7 10 -4 6 3 10 8 10 11 0 2 -4 4 -10 4 -5 0 -10
-5 -10 -11z"/>
<path d="M2787 639 c7 -7 15 -10 18 -7 3 3 -2 9 -12 12 -14 6 -15 5 -6 -5z"/>
<path d="M2850 630 c0 -5 7 -10 15 -10 8 0 15 5 15 10 0 6 -7 10 -15 10 -8 0
-15 -4 -15 -10z"/>
<path d="M2915 630 c3 -5 8 -10 11 -10 2 0 4 5 4 10 0 6 -5 10 -11 10 -5 0 -7
-4 -4 -10z"/>
<path d="M2568 623 c7 -3 16 -2 19 1 4 3 -2 6 -13 5 -11 0 -14 -3 -6 -6z"/>
<path d="M1715 610 c-16 -7 -17 -9 -3 -9 9 -1 20 4 23 9 7 11 7 11 -20 0z"/>
<path d="M2440 605 c-8 -9 -9 -15 -2 -15 6 0 14 5 17 10 4 6 11 7 17 4 7 -4 8
-2 4 4 -10 16 -21 15 -36 -3z"/>
<path d="M2655 610 c-3 -5 -1 -10 4 -10 6 0 11 5 11 10 0 6 -2 10 -4 10 -3 0
-8 -4 -11 -10z"/>
<path d="M2755 600 c-3 -5 1 -10 9 -10 9 0 16 5 16 10 0 6 -4 10 -9 10 -6 0
-13 -4 -16 -10z"/>
<path d="M2960 598 c0 -4 4 -8 9 -8 6 0 12 4 15 8 3 5 -1 9 -9 9 -8 0 -15 -4
-15 -9z"/>
<path d="M606 585 c-3 -8 -1 -15 4 -15 6 0 10 7 10 15 0 8 -2 15 -4 15 -2 0
-6 -7 -10 -15z"/>
<path d="M2555 590 c-4 -6 6 -10 22 -10 22 0 25 2 13 10 -19 12 -27 12 -35 0z"/>
<path d="M2806 588 c3 -4 12 -8 20 -8 8 0 14 4 14 8 0 4 -9 8 -19 8 -11 0 -17
-4 -15 -8z"/>
<path d="M1623 568 c-24 -11 -43 -24 -43 -29 0 -12 -2 -13 65 21 33 16 51 29
40 29 -11 0 -39 -9 -62 -21z"/>
<path d="M1031 570 c-8 -4 -10 -13 -7 -19 4 -6 12 -9 17 -5 5 3 15 1 22 -4 14
-11 72 -30 107 -34 14 -2 30 -6 36 -10 15 -10 311 1 322 12 1 1 7 3 14 4 6 0
13 6 15 12 3 10 -44 12 -67 3 -3 -1 -9 -1 -14 0 -5 1 -12 -2 -15 -8 -11 -17
-181 -15 -261 4 -48 12 -55 13 -60 15 -3 1 -14 2 -26 1 -11 -1 -31 7 -45 18
-16 12 -30 16 -38 11z"/>
<path d="M568 563 c7 -3 16 -2 19 1 4 3 -2 6 -13 5 -11 0 -14 -3 -6 -6z"/>
<path d="M1408 563 c7 -3 16 -2 19 1 4 3 -2 6 -13 5 -11 0 -14 -3 -6 -6z"/>
<path d="M1540 560 c0 -5 5 -10 10 -10 6 0 10 5 10 10 0 6 -4 10 -10 10 -5 0
-10 -4 -10 -10z"/>
<path d="M2389 556 c7 -9 21 -16 30 -16 9 0 26 -7 37 -15 12 -8 23 -12 26 -10
2 3 19 1 36 -4 18 -5 32 -7 32 -3 0 10 -44 26 -150 58 -22 6 -23 5 -11 -10z"/>
<path d="M2710 560 c0 -5 5 -10 11 -10 5 0 7 5 4 10 -3 6 -8 10 -11 10 -2 0
-4 -4 -4 -10z"/>
<path d="M2780 560 c8 -5 20 -10 25 -10 6 0 3 5 -5 10 -8 5 -19 10 -25 10 -5
0 -3 -5 5 -10z"/>
<path d="M2923 562 c-23 -3 -30 -16 -14 -26 9 -6 49 20 41 26 -3 2 -15 2 -27
0z"/>
<path d="M624 545 c-10 -8 -14 -15 -8 -15 5 0 19 7 30 15 10 8 14 15 8 15 -5
0 -19 -7 -30 -15z"/>
<path d="M2520 549 c0 -5 5 -7 10 -4 6 3 10 8 10 11 0 2 -4 4 -10 4 -5 0 -10
-5 -10 -11z"/>
<path d="M2968 553 c6 -2 18 -2 25 0 6 3 1 5 -13 5 -14 0 -19 -2 -12 -5z"/>
<path d="M385 540 c-3 -5 -2 -10 4 -10 5 0 13 5 16 10 3 6 2 10 -4 10 -5 0
-13 -4 -16 -10z"/>
<path d="M2640 540 c0 -8 5 -22 10 -30 9 -13 10 -13 10 0 0 8 -5 22 -10 30 -9
13 -10 13 -10 0z"/>
<path d="M2848 543 c7 -3 16 -2 19 1 4 3 -2 6 -13 5 -11 0 -14 -3 -6 -6z"/>
<path d="M2806 521 c-3 -5 1 -11 9 -15 9 -3 15 0 15 9 0 16 -16 20 -24 6z"/>
<path d="M2935 511 c-7 -22 14 -63 29 -58 20 7 17 27 -4 27 -19 0 -21 4 -16
25 7 29 0 34 -9 6z"/>
<path d="M630 505 c-11 -13 -10 -14 4 -9 9 3 16 10 16 15 0 13 -6 11 -20 -6z"/>
<path d="M900 510 c0 -5 5 -10 11 -10 5 0 7 5 4 10 -3 6 -8 10 -11 10 -2 0 -4
-4 -4 -10z"/>
<path d="M2565 510 c3 -4 14 -10 25 -13 11 -3 18 -2 15 3 -3 4 -14 10 -25 13
-11 3 -18 2 -15 -3z"/>
<path d="M2620 505 c0 -5 5 -17 10 -25 5 -8 10 -10 10 -5 0 6 -5 17 -10 25 -5
8 -10 11 -10 5z"/>
<path d="M2855 500 c-3 -5 -1 -10 4 -10 6 0 11 5 11 10 0 6 -2 10 -4 10 -3 0
-8 -4 -11 -10z"/>
<path d="M2786 482 c-2 -4 -1 -14 5 -22 7 -12 9 -10 9 8 0 23 -5 28 -14 14z"/>
<path d="M2750 469 c0 -5 5 -7 10 -4 6 3 10 8 10 11 0 2 -4 4 -10 4 -5 0 -10
-5 -10 -11z"/>
<path d="M2888 468 c9 -9 15 -9 24 0 9 9 7 12 -12 12 -19 0 -21 -3 -12 -12z"/>
<path d="M2681 467 c2 -1 12 -9 22 -16 15 -12 17 -12 11 3 -3 9 -13 16 -22 16
-8 0 -13 -1 -11 -3z"/>
<path d="M2830 460 c19 -13 30 -13 30 0 0 6 -10 10 -22 10 -19 0 -20 -2 -8
-10z"/>
<path d="M283 453 c9 -2 23 -2 30 0 6 3 -1 5 -18 5 -16 0 -22 -2 -12 -5z"/>
<path d="M2915 439 c-10 -15 3 -25 16 -12 7 7 7 13 1 17 -6 3 -14 1 -17 -5z"/>
<path d="M2750 436 c0 -2 7 -6 15 -10 8 -3 15 -1 15 4 0 6 -7 10 -15 10 -8 0
-15 -2 -15 -4z"/>
<path d="M2981 426 c-7 -8 -8 -17 -3 -20 6 -3 12 3 15 14 6 24 4 25 -12 6z"/>
<path d="M2806 417 c3 -10 9 -15 12 -12 3 3 0 11 -7 18 -10 9 -11 8 -5 -6z"/>
<path d="M201 404 c0 -11 3 -14 6 -6 3 7 2 16 -1 19 -3 4 -6 -2 -5 -13z"/>
<path d="M596 404 c-5 -14 -4 -15 9 -4 17 14 19 20 6 20 -5 0 -12 -7 -15 -16z"/>
<path d="M1900 385 c-13 -14 -20 -28 -17 -32 4 -3 18 6 31 20 14 15 21 29 17
32 -5 2 -19 -7 -31 -20z"/>
<path d="M2881 394 c0 -11 3 -14 6 -6 3 7 2 16 -1 19 -3 4 -6 -2 -5 -13z"/>
<path d="M2918 388 c9 -9 15 -9 24 0 9 9 7 12 -12 12 -19 0 -21 -3 -12 -12z"/>
<path d="M70 368 c-12 -22 -12 -22 6 -6 10 10 15 20 12 24 -4 3 -12 -5 -18
-18z"/>
<path d="M230 379 c0 -5 5 -7 10 -4 6 3 10 8 10 11 0 2 -4 4 -10 4 -5 0 -10
-5 -10 -11z"/>
<path d="M455 380 c-3 -5 -1 -10 4 -10 6 0 11 5 11 10 0 6 -2 10 -4 10 -3 0
-8 -4 -11 -10z"/>
<path d="M116 350 c-9 -17 -14 -30 -9 -30 8 0 35 51 30 56 -2 2 -11 -10 -21
-26z"/>
<path d="M591 364 c0 -11 3 -14 6 -6 3 7 2 16 -1 19 -3 4 -6 -2 -5 -13z"/>
<path d="M146 344 c-4 -9 -4 -19 -1 -22 2 -3 7 3 11 12 4 9 4 19 1 22 -2 3 -7
-3 -11 -12z"/>
<path d="M723 345 c-3 -9 -3 -18 -1 -21 3 -3 8 4 11 16 6 23 -1 27 -10 5z"/>
<path d="M428 327 c4 -14 7 -16 13 -5 12 19 11 25 -5 25 -8 0 -11 -8 -8 -20z"/>
<path d="M529 341 c8 -5 10 -14 6 -22 -6 -11 -5 -11 5 -2 14 12 6 33 -13 33
-8 0 -7 -3 2 -9z"/>
<path d="M1815 311 c-50 -35 -239 -94 -369 -115 -32 -6 -41 -12 -29 -19 13 -7
246 41 275 58 14 8 35 15 47 15 17 0 141 76 141 86 0 11 -30 0 -65 -25z"/>
<path d="M165 319 c-4 -6 -5 -12 -2 -15 2 -3 7 2 10 11 7 17 1 20 -8 4z"/>
<path d="M756 314 c-10 -25 1 -29 14 -5 6 12 7 21 1 21 -5 0 -12 -7 -15 -16z"/>
<path d="M90 295 c-7 -9 -8 -15 -2 -15 5 0 12 7 16 15 3 8 4 15 2 15 -2 0 -9
-7 -16 -15z"/>
<path d="M597 292 c-3 -4 1 -13 9 -19 7 -7 15 -9 17 -5 3 4 -1 13 -9 19 -7 7
-15 9 -17 5z"/>
<path d="M770 285 c-7 -9 -8 -15 -2 -15 5 0 12 7 16 15 3 8 4 15 2 15 -2 0 -9
-7 -16 -15z"/>
<path d="M110 275 c-6 -8 -10 -21 -8 -31 2 -11 7 -6 15 15 13 34 11 38 -7 16z"/>
<path d="M38 273 c7 -3 16 -2 19 1 4 3 -2 6 -13 5 -11 0 -14 -3 -6 -6z"/>
<path d="M535 269 c-4 -6 -5 -12 -2 -15 2 -3 7 2 10 11 7 17 1 20 -8 4z"/>
<path d="M790 259 c-6 -11 -10 -25 -8 -30 2 -5 8 4 15 21 13 34 9 40 -7 9z"/>
<path d="M67 253 c-4 -3 -7 -13 -7 -22 1 -13 3 -13 11 2 11 19 8 33 -4 20z"/>
<path d="M182 235 c-7 -14 -12 -31 -12 -38 1 -7 7 3 16 22 17 39 13 54 -4 16z"/>
<path d="M210 236 c-15 -42 -11 -55 6 -17 8 19 12 36 9 39 -2 3 -9 -7 -15 -22z"/>
<path d="M127 243 c-4 -3 -7 -11 -7 -17 0 -6 5 -5 12 2 6 6 9 14 7 17 -3 3 -9
2 -12 -2z"/>
<path d="M157 243 c-4 -3 -7 -11 -7 -17 0 -6 5 -5 12 2 6 6 9 14 7 17 -3 3 -9
2 -12 -2z"/>
<path d="M716 225 c-7 -29 7 -65 18 -46 4 6 3 11 -3 11 -6 0 -8 12 -4 30 7 36
-2 40 -11 5z"/>
<path d="M2936 235 c-9 -26 -7 -32 5 -12 6 10 9 21 6 23 -2 3 -7 -2 -11 -11z"/>
<path d="M836 225 c-3 -9 -6 -24 -5 -33 0 -9 5 -4 10 12 9 32 6 48 -5 21z"/>
<path d="M670 198 c-12 -22 -12 -22 6 -6 10 10 15 20 12 24 -4 3 -12 -5 -18
-18z"/>
<path d="M256 193 c-6 -14 -5 -15 5 -6 7 7 10 15 7 18 -3 3 -9 -2 -12 -12z"/>
<path d="M470 180 c-12 -16 -19 -30 -16 -30 2 0 14 14 26 30 12 17 19 30 16
30 -2 0 -14 -13 -26 -30z"/>
<path d="M776 195 c-9 -26 -7 -32 5 -12 6 10 9 21 6 23 -2 3 -7 -2 -11 -11z"/>
<path d="M58 168 c-17 -27 -29 -58 -23 -58 3 0 14 18 25 40 22 43 21 54 -2 18z"/>
<path d="M1100 182 c0 -15 93 -30 170 -26 113 6 123 8 128 23 3 10 -3 11 -29
5 -43 -11 -217 -12 -246 -1 -13 5 -23 4 -23 -1z"/>
<path d="M276 172 c-3 -5 1 -9 9 -9 8 0 12 4 9 9 -3 4 -7 8 -9 8 -2 0 -6 -4
-9 -8z"/>
<path d="M83 158 c-13 -19 -43 -88 -38 -88 3 0 16 23 30 50 24 48 28 64 8 38z"/>
<path d="M175 159 c-4 -6 -5 -12 -2 -15 2 -3 7 2 10 11 7 17 1 20 -8 4z"/>
<path d="M416 154 c-17 -17 -39 -54 -33 -54 3 0 17 16 31 35 28 36 29 46 2 19z"/>
<path d="M622 147 c-31 -33 -27 -43 4 -12 14 14 24 28 22 31 -3 2 -14 -6 -26
-19z"/>
<path d="M823 135 c0 -22 2 -30 4 -17 2 12 2 30 0 40 -3 9 -5 -1 -4 -23z"/>
<path d="M761 144 c0 -11 3 -14 6 -6 3 7 2 16 -1 19 -3 4 -6 -2 -5 -13z"/>
<path d="M84 98 c-14 -29 -21 -48 -14 -41 13 12 52 93 45 93 -3 0 -16 -24 -31
-52z"/>
<path d="M469 133 c-33 -40 -40 -56 -10 -24 17 18 31 35 31 37 0 8 -7 3 -21
-13z"/>
<path d="M425 119 c-4 -6 -5 -12 -2 -15 2 -3 7 2 10 11 7 17 1 20 -8 4z"/>
<path d="M792 105 c0 -16 2 -22 5 -12 2 9 2 23 0 30 -3 6 -5 -1 -5 -18z"/>
<path d="M883 80 c0 -25 2 -35 4 -22 2 12 2 32 0 45 -2 12 -4 2 -4 -23z"/>
<path d="M646 94 c-5 -14 -4 -15 9 -4 17 14 19 20 6 20 -5 0 -12 -7 -15 -16z"/>
<path d="M690 104 c0 -6 -9 -20 -20 -32 -12 -12 -17 -22 -12 -22 13 0 45 50
38 58 -3 3 -6 1 -6 -4z"/>
<path d="M15 90 c-3 -5 -1 -10 4 -10 6 0 11 5 11 10 0 6 -2 10 -4 10 -3 0 -8
-4 -11 -10z"/>
<path d="M841 65 c1 -40 1 -40 10 -10 5 18 5 33 -1 39 -7 7 -10 -4 -9 -29z"/>
<path d="M350 60 c-6 -11 -8 -20 -6 -20 3 0 10 9 16 20 6 11 8 20 6 20 -3 0
-10 -9 -16 -20z"/>
<path d="M452 60 c-18 -29 -15 -38 4 -12 9 13 14 25 12 27 -2 2 -9 -5 -16 -15z"/>
<path d="M716 65 c-9 -26 -7 -32 5 -12 6 10 9 21 6 23 -2 3 -7 -2 -11 -11z"/>
<path d="M2792 57 c-12 -13 -22 -29 -22 -36 0 -13 4 -10 44 37 25 29 6 28 -22
-1z"/>
<path d="M2930 70 c-8 -5 -12 -12 -9 -15 4 -3 12 1 19 10 14 17 11 19 -10 5z"/>
<path d="M404 48 l-19 -23 23 19 c21 18 27 26 19 26 -2 0 -12 -10 -23 -22z"/>
<path d="M942 30 c0 -19 2 -27 5 -17 2 9 2 25 0 35 -3 9 -5 1 -5 -18z"/>
<path d="M2825 34 c-9 -15 -12 -23 -6 -20 11 7 35 46 28 46 -3 0 -12 -12 -22
-26z"/>
<path d="M2955 50 c-3 -5 -1 -10 4 -10 6 0 11 5 11 10 0 6 -2 10 -4 10 -3 0
-8 -4 -11 -10z"/>
<path d="M15 40 c-3 -5 -1 -10 4 -10 6 0 11 5 11 10 0 6 -2 10 -4 10 -3 0 -8
-4 -11 -10z"/>
<path d="M76 34 c-5 -14 -4 -15 9 -4 17 14 19 20 6 20 -5 0 -12 -7 -15 -16z"/>
<path d="M105 29 c-4 -6 -5 -12 -2 -15 2 -3 7 2 10 11 7 17 1 20 -8 4z"/>
<path d="M316 13 c-6 -14 -5 -15 5 -6 7 7 10 15 7 18 -3 3 -9 -2 -12 -12z"/>
</g>
</svg>
